<?xml version="1.0" encoding="UTF-8"?>
<svg version="1.1" viewBox="0 0 854 1068" width="1280" height="1280" xmlns="http://www.w3.org/2000/svg">
<path transform="translate(0)" d="m0 0h854v1068h-854z" fill="#221D20"/>
<path transform="translate(399,146)" d="m0 0 9 2 10 2 6 4 7 1 9 1 10 7 7 4v2h2l8 15 3 7 4 5v2l10 5 4 10 3 4 3 8v31l5 11 3 10 5 15v4l6 1 3 4-1 5-5 3h-2v8l-3 5-3 1v7l2 5 3 1 4 5 1 3-1 16-3 20-4 9-4 14-1 3-1 6-4 8 1 7-3 11-7 9-4 7-4 4-3 6h-2v-2h-6l3 6 1 3-1 2h-11l-8-3-5 1-9 3-4 2-4 5-3 9-7 5-3 5-5 6h-2v2l-8 3-6 2-4 4-4 1-13 1-4 2h-7l-2-2-4 1-5 1h-7l-6-3-10-3-5-4v-2l-3-1-4-6-5-3-3-6-4-4-2-7-9-3v2h-2l-1 5-3 5-5 1-12-6-6-5-6-8-9-15-4-11-2-7-2-13v-5l-4 1-7-2-4-6-4-19-6-14-6-19-6-14-1-4v-18l3-9 5-6 3-2h11l6 3 3 4 2 13 1 1 4-19 1-2-2 1h-6l-2-1v-9l1-2 7-2 3-12 1-12-2-9 1-13 5-23 7-16 6-12 7-11 4-7 11-8 12-4 4-2 11-1 6-2 15-2 5-1 9-1 15-3v-3l12-4h14l6-3z" fill="#845B5B"/>
<path transform="translate(381,177)" d="m0 0 5 2 12 6 8 10 9 4 4 6 1 8h2l1 5-3 8-2 5 4 11 5 4 5 6-1 5-10 4-9 3-5 1-2 4-6 4-4 2-11 1v2h11l3 3-1 5-4 2-15 1-32 1-1 6 3 7 1 9-5 7-1 7h-2v4h-2l-1 8-6 9-4 2v2l-6 3v4l13-1 5-10 6-11h2l2-5h2l1-4 2-5 1-10-2-10v-6l4-3h17l5 1 1-3h7l4 8-1 7-4 1-4-2-2 2-1 11 3 13 4 15 3 7 3 13-1 5-4 4-16 8-7 1-8-3h-10l-3 1-12 1-1 3 4 2v4l-5 3h-2v2l-7 3-9 1-10 4-5 7v9l1 3 5 2 3 3 12 1 4-2 7-1 2-2 10-2 5-2-2-2-16-1h-6l-2-3 2-4 5-3 15-3 4-1h17l2-8h6l1 3-1 6h29l5 2 3 3-2 4-8 4-8 2-9 2v3l20 1 3 3 1 6-1 1h-5l-1-3h-6l-7 2-1 4 7 2 1 4-5 6-4 3h-2v2l-4 2h-4v2l-3 1h-41l3 9 5 2 10 5h10l9-2h23l9-8h2l2-5 8-9 3-5 4-17 6-4 5-1 3 1 10-4 2-7v-9l-5-5-6-5-11-3-1-1v-6l1-7-2-7-8-7-2-5 1-2h6v-3l-7-2-5-5v-2h-2l-5-9-1-8 5-9v-10l3-5 4-2 3 1-1-11-2-4-4-1v-2h-2v-8h13l8 5-1 6 1 5-2 9-7 2h6l6-1 3 4 3 7 4 4 1 3 9 4 5 3 13 3 8 6 2 2 1 8 3 3-1 6h6l7 2v6l-4 4-5 17-4 10-3 10-2 13-4 6h-2v2h-2l-6 12-3 2-4 9-2 3-13-1-7-1-1 12-4 4-8 6-12 7-8 5-6 4h-2l-1 8-7 1-9-1-8 2-7 1-9 3-1 2-5-1-9-4-1-5 1-2-1-2-5-3-2-3-6-2-3-2-4-10-5-7-2-1-9-1-2-2v-4h-2v-2h-3v-2h-2l-4-4-6-2-8-3-1-8-4-5-3-3-3-6-3-5-2-6-5-16-3-12-1-1-1-14v-20l1-10v-7l2-12h3l4 12 1 2 3 1v-15l5 1 5 3 7 1 2 5 7-1 2-3h5v-9l5-1 3 6 14-1 4-9h2v-2l6 1-2-5-5-1-5-3v-2l-4 2h-6l-3-2v5l-5 2-2-3-14 1-4-2v-8l5-5 8-3 13-5 7-2 1-1h7l2 2v3l-4 1v3l11 1 5-1 2-1 1-5 7-2 1-2-6-2-9-4-9-3-7-2h-8l-5 2h-14l1-5 4-5h2v-2l5-3 3-1 2-8-7-1-2-2-1-15-1-2v-7l3-3 4-3 3-6 4-6 7-6h2l2-4 6-2h5l1 1h7l3-4 6-1h8l12-3 11-2h9z" fill="#A16F6C"/>
<path transform="translate(383,649)" d="m0 0h8l11 4 17 10 11 8 8 6 11 6 7 4 9 2v6l-10 19-8 16-11 19-9 15-12 19-10 16-11 17-15 22-10 16-12 19-8 14-8 15-1 1h-5l-4-8-11-25-7-16-5-11-8-26-7-29-6-29-5-22-6-31-3-26 1-4 5 1 4 3h10l10-6 10-2 13-9 16-5 10-6 3-1 21-1z" fill="#B9BACC"/>
<path transform="translate(508,499)" d="m0 0 5 1 5 6v3h2l3 6v14l-5 32-2 10-2 12-4 11-17 25-6 1-3-9-2-7-6-4-2-5-8 1-36 8-22 8-13 7-4 1h-9l-8-4-15-1-8 1-9-6-27-11-28-10-5-2h-5l-2 11-3 32-2 3-4-1-3-8-1-5 1-14 3-47 1-11 1-23h2l2-4 2-9 2-1 8 7 10 7 6 4v2l6 2 8 6 10 6 22 9 27 3h27l12-2 3 1v2l17-6 16-8 14-8 7-5 7-3 7-5 5-2 9-11 7-8z" fill="#B4716C"/>
<path transform="translate(399,146)" d="m0 0 9 2 10 2 6 4 7 1 9 1 10 7 7 4v2h2l8 15 3 7 4 5v2l10 5 4 10 3 4 3 8v31l5 11 3 10 5 15v4l6 1 3 4-1 5-5 3h-2v8l-3 5-3 1v7l2 5 3 1 4 5 1 3-1 16-3 20-4 9-4 14-1 3-1 6-4 8 1 7-3 11-7 9-4 7-4 4-3 6h-2v-2h-6l3 6 1 3-1 2h-11l-8-3-5 1-9 3-4 2-4 5-3 9-7 5-3 5-5 6h-2v2l-8 3-6 2-4 4-4 1-13 1-4 2h-7l-2-2-4 1-5 1h-7l-6-3-10-3-5-4v-2l-3-1-4-6-5-3-3-6-4-4-2-7-9-3v2h-2l-1 5-3 5-5 1-12-6-6-5-6-8-9-15-4-11-2-7-2-13v-5l-4 1-7-2-4-6-4-19-6-14-6-19-6-14-1-4v-18l3-9 5-6 3-2h11l6 3 3 4 2 13 1 1 4-19 1 4-2 13-1 14h-2l-3-7v-15h-2l-4-6-5-2h-6l-6 4-3 6-2 9v13l6 17 9 26 5 13 2 13 4 5 5-1-1-30 1-2h3l3 17 5 12-1 6 1 5 4 1 1 12 3 5 1 4 7 4 5 10 2 3 10 4 1 1v5l5-5 1-2 12 1 5 3 5 13 5 8 8 2 2 10 5 3 10 2 5 4 4-1 2-3 5-3 3-3 7 1 1 1v5h2l2-7 4 1 2 6h2v-2l8-1 1-3 9-1 2-3h2v-2l4-4 1-7 4-4 9-5 6-5 3-4 7-3 7-2 10-7 8-11 7-3 2-9h4l4 4 5-1-1-11 2-13 2-6-1-6-2-3v-8l3-12 3-4 8-2v-7l2-8-8-1-5 1-5-1v-13h-2l-1-2 1-18 1-9 1-10 4-1 1-5-2-2h-6l-2 6 1 4v15l-2 7-2 3-9-1-12-2v-11l2-5-1-3h-5l-1 3-5 3-7-1-1-3 6-1-1-9 4-2 17-2h5v-6l-3-1v-3h-2l-2-5 4-2-6-6-9-1h-13l-11 1-2 1h-7l2-5 12-5h21l9 2 13-1 2-8 1-14 1-11-2-12-6-17-2-6-8-14v-2h-2l-3-4v-2h-2l-10-10-13-4-3-2-11-1-11-3-7-1-3 2h-10l-2 2-10 1-11 4-16 2-5 2-20 4-11 1-18 6-11 7-6 7-11 19-4 9-3 12-1 7v12l2 17-3 9-5 13-2 1-3 6h-5l4-2 3-12 1-12-2-9 1-13 5-23 7-16 6-12 7-11 4-7 11-8 12-4 4-2 11-1 6-2 15-2 5-1 9-1 15-3v-3l12-4h14l6-3z" fill="#4E3533"/>
<path transform="translate(381,177)" d="m0 0 5 2 12 6 8 10 9 4 4 6 1 8h2l1 5-3 8-2 5 4 11 5 4 5 6-1 5-10 4-9 3-5 1-2 4-6 4-4 2-11 1v2h11l3 3-1 5-4 2-15 1h-43l-2 1 5 3 1 3-1 1-12 1h-12l-2-5-2 6-3 2h-6l-3-2v5l-5 2-2-3-14 1-4-2v-8l5-5 8-3 13-5 7-2 1-1h7l2 2v3l-4 1v3l11 1 5-1 2-1 1-5 7-2 1-2-6-2-9-4-9-3-7-2h-8l-5 2h-14l1-5 4-5h2v-2l5-3 3-1 2-8-7-1-2-2-1-15-1-2v-7l3-3 4-3 3-6 4-6 7-6h2l2-4 6-2h5l1 1h7l3-4 6-1h8l12-3 11-2h9z" fill="#C07D77"/>
<path transform="translate(381,291)" d="m0 0h5l1 4-2 3-4 2-4 8h-2v19l3 9-1 1 3 11 4 11 2 5-2 7-4 4-12 7-15-4-6 1-5 2h-12v11l-7 4-13 1-10-1-3 5-1 7-2 4v7l5 16-1 10-4 4-4-1-3-5-2-6-5-2v-2l-5-2-5-5-2-5-4-2-2-4-2-10-6-10-4-10-2-11-1-12-1-11 3-11 1 2 4 2 5 6 10 5 6 2 6 1 13 1v-3l-10-1-16-5-4-4-1-7 5 1 2 4 8 1v-2l5-1h20l7-2 8-4h2v-2l6-4v-6l2-2 5 1 1 3 3 1 1 2v9l-6 9-4 2v2l-6 3v4l13-1 5-10 6-11h2l2-5h2l1-4 2-5 1-10-2-10v-6l4-3h17l5 1z" fill="#B3706C"/>
<path transform="translate(402,279)" d="m0 0h13l8 5-1 6 1 5-2 9-7 2h6l6-1 3 4 3 7 4 4 1 3 9 4 5 3 13 3 8 6 2 2 1 8 3 3-1 6h6l7 2v6l-4 4-5 17-4 10-3 10-2 13-4 6h-2v2h-2l-6 12-3 2-4 9-2 3-13-1-7-1-1 12-4 4-8 6-12 7-8 5-6 4h-2l-1 3-1-2 1-3 6-2 1-4-10-2h-8l-4-4 17-1 9-8h2l2-5 8-9 3-5 4-17 6-4 5-1 3 1 10-4 2-7v-9l-5-5-6-5-11-3-1-1v-6l1-7-2-7-8-7-2-5 1-2h6v-3l-7-2-5-5v-2h-2l-5-9-1-8 5-9v-10l3-5 4-2 3 1-1-11-2-4-4-1v-2h-2z" fill="#A16F6C"/>
<path transform="translate(503,507)" d="m0 0 4 1-2 7-4 9-3 9 2 12 2 7 4 5v9h2v2l3 1v9l-2 9-2 6h-2l-2 4-1 3h-2l-2 5-6 9h-3l-4-12-6-3-4-6-9 1-31 7-23 7-20 10h-10l-8-4-7-1-5-3-6 4-6-1-11-6-11-5-18-7-20-7-10-4-5 1-2 3-2 20-1 6-1 11-3-1v-13l3-37 2-43 2-1 3 6 2 7 6 9 10 9 11 7 17 10 9 5 19 10 19 8h8l15-8 13-9 20-14 33-22 8-6h2v-2l14-11 12-12 4-5h2l2-4z" fill="#BABBCD"/>
<path transform="translate(373,163)" d="m0 0 8 3h16l1-1 8 1 5 1 8-1 6 5 7 4 6 10 2 2 2 5 2 2v6l3 4v2h2v20l2 11-2 10v3h-2l-2 5-2 6-2 1-16 2-10 3-12 8-13 2v1h-6v-2l11-2 10-6 2-3 10-4 12-4 2-6-4-3v-2l-4-2-4-6-2-8 4-8 1-9h-2l-3-9-3-5-9-4-8-10-11-5-5-2-1 1h-9l-11 2-12 3h-9l-6 2-2 3h-7l-1-1-10 1-5 5-4 2-1 3h-2l-2 5-3 4-3 5-5 2v9l1 5 1 12 8 3-2 8-5 4h-3v2h-2l-2 4-2 2-1 4 14-1 5-2h8l14 4 9 4 8 4-1 3-6 1-3 7-7 1h-5l-5-2v-3l4-1-1-4 7 1-1-7-3-2-8-2-11 1-15 4-10 2-5 3h-2v2l-10 5-3 4h-2v6h2v5h-6l-2-1 1-9 4-11 4-9 1-13 1-6-1-2v-18l4-14 8-16 3-5 5-7h2v-2l10-6 14-6 20-2 9-3 12-2 2-1h7z" fill="#B4716C"/>
<path transform="translate(383,310)" d="m0 0 7 2 5 3 1 2v7h-2l2 4v6l6 11v2h2l5 6 7 3v3h-6l1 4 3 5 7 6 1 11-1 2v6l11 3 11 9 1 2v9l-2 7-11 5-4-1-7 3-2 1-4 17-8 11h-2l-2 5-5 5-8 7h-26l-6 2h-10l-15-8-3-4-1-5 1-1h44v-2l8-2v-2l9-7 1-3-1-3-6-2 1-5 7-2h6l1 4 5-1-1-6-3-2-17-1-2-1v-3l11-4 8-2 7-4 1-2-3-1-1-2-4-1h-29l-1-3 1-6-6-1-1 8-1 1h-17l-12 3-7 1-5 2-1 5 1 1h14l8 1 3 4-10 3-7 2-1 1-9 2-4 1-10-1-8-6-2-3v-9l6-8 10-4 9-1 7-2v-2l7-4-2-4-2-1 1-4 12-1 3-1h10l8 3 7-1 9-5 9-2 4-3v-10l-7-19-1-5-1-8-3-9v-10z" fill="#865C5B"/>
<path transform="translate(422,296)" d="m0 0h2l2 4 16-1v2l-3 2v8l-5 2v2h7l5-3 3-3 4 1 1 5-2 3-1 11h9l8 2h4l2-5 1-4v-15l-1-6 3-5h6l3 3-2 5-3 1-1 16-1 3-1 20h2l1 2-1 11 14-1 4 2v6l-2 9-9 4-2 4-2 10v8l3 5-1 8-2 8-1 12 1 6-2 2-6-1-2-4h-4l-1 9-8 4-9 12-11 7-9 3-4 2-5 5-5 4-4 3h-3l-1 3-3 3-1 7-4 2v2l-4 4-9 1-1 2-8 1v2h-2l-3-6-3-1-2 7h-2l-1-5-7-1-5 5-3 1-3 4-5-1-5-4-10-2-4-3-1-10-8-1-7-11-3-11-4-1-1-1-12-2-2 4-2 3h-2l-2-6-10-4-5-8-1-5-8-4-3-8-1-1v-12l-4-1-2-6 1-5-5-12-2-17h-3l1 32-2 2-5-1-4-5-3-16-6-15-9-27-4-11v-13l3-12 5-6 4-2 9 1 5 4 1 4h2l1 15 2 12v10l2-1 1-3 2-25 2-12h4l3 5 1 4 3 1 1-3v10l-4-1-4-11v-3h-3v7l-1 9v8l-1 5v24l1 10 3 8 5 19 3 6 1 4 4 7 1 4 4 2 3 4 1 8 7 2 9 4 1 3h2v2h3v2h2l2 5 9 1 5 5 5 8 1 6 9 3 4 5 4 2 1 3-1 5 11 5 3 1 1-3 12-4 9-1 7-1 6 1h6v-6l5-5 11-6 9-6 8-5 5-4h2l1-14 1-1 7 1 13 1 4-8 3-5 3-3 3-6 2-3h2v-2l3-3 3-6 2-14 4-10 3-9 4-14 4-4v-6l-10-1-2-1v-6l-3-3-1-8-7-6-5-2-12-3-6-4-7-3-2-5-4-4-4-8-12 1-1-2 8-1z" fill="#855B5B"/>
<path transform="translate(362,198)" d="m0 0h10l9 1 7 4 11 3 3 3 1 3v8l-5 5-6 4-5 2-2 8 2 1 14 2 7 8-2 10-5 6-11 7h-3v3h-3v2h11l3 3-1 5-4 2-15 1h-15l-12-2-5-4-1-6-6-2v-2l-10-3-1-3-6-1-4-1v-2l-3-1-3-3-7-2 1-2h6l1-4 6-5 5-6h10l6 4 5 1-1-4-3-3-20-4-2-4h-2v-2h-2l-2-4 3-7 5-3 4-1 1-6 5-2 9-1 9-3 11-2z" fill="#C48A85"/>
<path transform="translate(481,304)" d="m0 0h3v2h-2v22l2 2 4 20 9-1 6-1 3 4-2 9-3 15-3 21-1 2v7l1 2h-2v4l-5 5-3 4v6h3v10l-7 7-2 5-7 6-8 1-2 2-1 7-4 4h-4v-2l-8-1v2h-2l-2 4-10 3-5 5-4 10-7 5-3 5-5 6h-2v2l-8 3-6 2-4 4-4 1-13 1-4 2h-7l-2-2-4 1-5 1h-7l-6-3-10-3-5-4v-2l-3-1-4-6-5-3-3-6-4-4-2-7-9-3v2h-2l-1 5-3 5-5 1-12-6-6-5-6-8-9-15-4-11-2-7-2-13v-5l-4 1-7-2-4-6-4-19-6-14-6-19-6-14-1-4v-18l3-9 5-6 3-2h11l6 3 3 4 2 13 1 1 4-19 1 4-2 13-1 14h-2l-3-7v-15h-2l-4-6-5-2h-6l-6 4-3 6-2 9v13l6 17 9 26 5 13 2 13 4 5 5-1-1-30 1-2h3l3 17 5 12-1 6 1 5 4 1 1 12 3 5 1 4 7 4 5 10 2 3 10 4 1 1v5l5-5 1-2 12 1 5 3 5 13 5 8 8 2 2 10 5 3 10 2 5 4 4-1 2-3 5-3 3-3 7 1 1 1v5h2l2-7 4 1 2 6h2v-2l8-1 1-3 9-1 2-3h2v-2l4-4 1-7 4-4 9-5 6-5 3-4 7-3 7-2 10-7 8-11 7-3 2-9h4l4 4 5-1-1-11 2-13 2-6-1-6-2-3v-8l3-12 3-4 8-2v-7l2-8-8-1-5 1-5-1v-13h-2l-1-2 1-18 1-9 1-10z" fill="#4F4145"/>
<path transform="translate(512,482)" d="m0 0 4 1 3 5 2 9 5 11 1 3v14l-7 38-6 28-4 8-6 8 1 11-8 16-3 3-3 1-3-2-1-9-4-5-2-6-1-11-5-2-2-8-3 3-1 12-1 1-1 12h-4l-9-4-12 1-10 1-9-1h-23-3l-7 2h-7l-5-2-7-3-7 1h-13l-6-3-1 3-8 7-11-3-11-5-8-11-2-7 1-1-14-6-11-4h-2l-4 33-1 15-1 1h-6l-4-9-2-8v-12l1-8 2-36 4-37h1v20l-2 24-2 34-1 14 3 12 4 1 1-2 4-39 2-5 8 1 27 10 20 8 11 5 8 5 10-1 13 1 8 4h9l10-4 12-6 21-7 35-8h5l4 7 5 3 4 16 6-2 17-26 4-13 2-15 3-14 3-23v-12l-2-6h-2l-4-7-3-2-5 1-6 5-9 11-4 5-7 3-7 5-7 3-9 6-11 6-16 8-13 4h-2v-2l-11 1-4 1h-27l-27-3-22-9-12-7-8-6-4-2v-2l-5-2-5-4-6-4-8-7h-1l-2 9-4 4v-17l-1-7 1-2 5 1 6 7 8 8v2l5 2 10 8 6 5 11 6 16 8 18 5 16 1 7 1 20-1 29-5 5-3 8-2 5-3 11-8 6-4 6-3 8-6 9-8 7-4 7-2 6-6h2l2-4 2-7z" fill="#69565A"/>
<path transform="translate(393,151)" d="m0 0h14l2 2 7 1 5 1 9 5h12l10 8 2 3 5 3 6 14 7 10v4l4 2v2l4 2 3 4 4 10 4 2v6l-3 4-2 9v10h2l2 7-3 5-6 4-2 4-11 1 1 5 7 4 1 3-2 5 5 3 5 2 6 3 1 2-8 3 1-5-2-2h-6l-2 6 1 4v15l-2 7-2 3-9-1-12-2v-11l2-5-1-3h-5l-1 3-5 3-7-1-1-3 6-1-1-9 4-2 17-2h5v-6l-3-1v-3h-2l-2-5 4-2-6-6-9-1h-13l-11 1-2 1h-7l2-5 12-5h21l9 2 13-1 2-8 1-14 1-11-2-12-6-17-2-6-8-14v-2h-2l-3-4v-2h-2l-10-10-13-4-3-2-11-1-11-3-7-1-3 2h-10l-2 2-10 1-11 4-16 2-5 2-20 4-11 1-18 6-11 7-6 7-11 19-4 9-3 12-1 7v12l2 17-3 9-5 13h-2l1-6 2-8v-16l-1-1 1-16 2-10 4-14 8-17 5-8 9-13 11-7 19-6 21-3 6-2 24-3 7-4 10-3 1-1 15-1z" fill="#694645"/>
<path transform="translate(414,329)" d="m0 0 7 1 11 9 7 2h14l5-1 13 1 3 3v6l-1 2-14 1-16 4 8 3v-2l11-1 4-1 5 3 1 2 8 2-1 8-2 6-3 5h-3l-2 4-3 4-1 3-4 3-1 6 1 6v9l-2 9-3 6-3 1-1 8-5 8h-5l-5-5 1-7 5-11 2-5 1-14-3-5-11-7v-2l-6-1-2-1-1-3v-8l1-5-2-1v-2l-4-2v-2l-4-1-1-5 2-1h10v-2h7v-2l-12-1-9-3-4-3v-5l-1-1v-9h2v-2h2v-2z" fill="#B3706C"/>
<path transform="translate(373,163)" d="m0 0 8 3h16l1-1 8 1 5 1 8-1 6 5 7 4 6 10 2 2 2 5 2 2v6l3 4v2h2v20l2 11-2 10v3h-2l-2 5-2 6-2 1-16 2-10 3-12 8-13 2v1h-6v-2l11-2 10-6 2-3 10-4 12-4 3-7 5-2-1-7-5-6 7-2 3-4 1-9v-11h-2l-6-10-3-3-3-7-3-3-4-7-1-3-4-2-9-2h-15l-14-1h-6l-4 2-7 1-2 2h-8l-6-1-3 1-11 1-7 2-12 2-14 5-15 9-6 8-5 12-3 13-2 11v11l3 6 2 2v3h2l1 5 5 1h15l5-2h8l14 4 9 4 8 4-1 3-6 1-3 7-7 1h-5l-5-2v-3l4-1-1-4 7 1-1-7-3-2-8-2-11 1-15 4-10 2-5 3h-2v2l-10 5-3 4h-2v6h2v5h-6l-2-1 1-9 4-11 4-9 1-13 1-6-1-2v-18l4-14 8-16 3-5 5-7h2v-2l10-6 14-6 20-2 9-3 12-2 2-1h7z" fill="#A06765"/>
<path transform="translate(335,288)" d="m0 0 11 1-1 7 3 7 1 9-5 7-1 7h-2v4h-2l-1 4-1-7-4-1-1-3-5 1v6l-5 4h-2v2l-11 6-6 1h-25v2h-6l-5-5-4-1 3 8 5 3 17 5 6 1v3h-17l-3-2-7-2-9-5-6-7-3-1-2 11 2 15v9l3 10 3 8 4 7 3 6 2 10 5 5 4 6 7 4v2l6 2v14l-10-4-8-3-1-8-4-5-3-3-3-6-3-5-2-6-5-16-3-12-1-1-1-14v-20l1-10v-7l2-12h3l4 12 1 2 3 1v-15l5 1 5 3 7 1 2 5 7-1 2-3h5v-9l5-1 3 6 14-1 4-9h2v-2l6 1-2-5-5-1-5-3-1-3 1-7 2 2 1 5 3-1h14l7-1-2-4-4-2z" fill="#A06765"/>
<path transform="translate(346,165)" d="m0 0h12l3 2-10 2h-6l-6 2-10 2-7 2-20 2-18 8-4 3h-2v2l-5 5-3 6-4 7-6 12-3 14v17l1 5-2 10v5l-2 5-5 12-3 12 8 1v-5h-2l-1-4 1-2h2l2-4 4-3 7-2v-2l10-5 14-3 15-3 7 1 7 2 2 2v7l-15-1-3 2-13 4-12 4-5 5v6l-1 2 5 1 13-1 2 3 5-1-1-6 4 2h6l4-1 2 3 8 1 2 3v4l-6-1v2h-2l-3 9-1 1-14 1-2-2-1-4h-4l-1 9h-5l-2 4h-7l-2-5h-7l-10-5 1 3-2 5-4-1-3-8-3-1-2 12-2 25-2 4h-2l-2-21 2 3v3h2v-14l3-19-2 1h-6l-2-1v-9l1-2 8-1 3-6h2l2-9 3-9 2-4-2-17v-12l3-14 3-9 6-12 10-16 7-6 10-6 16-5 15-2 16-3z" fill="#865C5B"/>
<path transform="translate(508,499)" d="m0 0 5 1 5 6v3h2l3 6v14l-5 32-2 10-2 12-4 11-17 25-6 1-3-9-2-7-6-4-2-5-8 1-36 8-22 8-13 7-4 1h-9l-8-4-15-1-8 1-9-6-27-11-28-10-5-2h-5l-2 11-3 32-2 3-4-1-3-8-1-5 1-14 3-47 2-26 1-5 6-1 2 2 4 15 6 8 7 6v2l4 2 13 8 9 6 6 3 12 7 22 11-3 1-21-10-8-5-8-4-15-9-11-7-12-11-6-9-2-8-2-3-2 46-3 34v13l2 1v-15l1-2 2-20 5-5 6 1 23 9 17 6 19 8 10 6 6-1 5-3 4 3 10 2 5 3h10l17-8 9-4 17-5 31-7 9-1 5 7 5 2 3 7 1 6 3-1 8-13h2l1-4 2-3h2l1-6 2-9v-9l-2-1v-2h-2l-1-9-5-6-3-15 1-5 4-13 3-4 1-6-4 1-8 9-14 14-9 7-3 1v2l-16 11-18 12-19 13-10 7-15 10-13 7h-5l1-2 13-5 20-14 9-6 5-4 16-11 19-13 5-4 8-6 6-5h2v-2l9-7 13-15 6-7z" fill="#958994"/>
<path transform="translate(328,322)" d="m0 0 5 1 1 3 3 1 1 7-6 9-8 9-8 4-2 5h12l2 3-1 5-5 5-9 2-12 9-4 5-4 4-5 3h-8v2l-10-2-4-4-2-4v-5l-3-1-2-12-3-5v-9l3-5 7 1 3 2 6 2 6 1 13 1v-3l-10-1-16-5-4-4-1-7 5 1 2 4 8 1v-2l5-1h20l7-2 8-4h2v-2l6-4v-6z" fill="#BF7D77"/>
<path transform="translate(381,291)" d="m0 0h5l1 4-2 3-4 2-4 8h-2v19l3 9-1 1 3 11 4 11 2 5-2 7-4 4-12 7-10-3-6-3v-2l-9 1-3 4h-7v-2h-2l-2-5 5-6 11-1h2l2-6 3-12 2-4 1-12 3-8-1-12-3-9v-6l4-3h17l5 1z" fill="#BF7D77"/>
<path transform="translate(267,527)" d="m0 0h1v20l-2 24-2 34-1 14 3 12 4 1 1-2 4-39 2-5 8 1 27 10 20 8 11 5 8 5 10-1 13 1 8 4h9l10-4 12-6 21-7 35-8h5l4 7 5 3 1 3h-2l1 2v8l-2-1-1-11-5-2-2-8-3 3-1 12-1 1-1 12h-4l-9-4-12 1-10 1-9-1h-23-3l-7 2h-7l-5-2-7-3-7 1h-13l-6-3-1 3-8 7-11-3-11-5-8-11-2-7 1-1-14-6-11-4h-2l-4 33-1 15-1 1h-6l-4-9-2-8v-12l1-8 2-36z" fill="#4F4348"/>
<path transform="translate(412,373)" d="m0 0 5 1 2 4v8l-3 5-4 1 1 4 5 2 12 1 7 6 4 6-1 7-10 5-9 4-10 5-5-2-1-4-8-2v-4l8-3 11-2-1-4-7-4-4-3-10-1h-17v-5l-2-3-10-4-3-2h-22v-2l-3-1v-2l10-2h10l5 3h10l7-5 6-2h7l6 3 8-1 4-1z" fill="#6A4745"/>
<path transform="translate(275,510)" d="m0 0 5 3 8 7 12 8v2l6 2 8 6 10 6 22 9 27 3h27l12-2 3 1v2l17-6 16-8 14-8 7-5 7-3 7-5 3 1-8 7h-2v2l-5 2h-3l-1 3-30 15-15 7-14 5-15 4-10 1-2 1h-9l-16-3-3-3h-9l-9-2-3-3-7-3-12-6-5-3-5-5-7-3-8-5v-2l-4-1-6-4-2-3h-4l-1 3h-2v5h-1v-8h2l2-4 2-9z" fill="#835B5B"/>
<path transform="translate(421,426)" d="m0 0h6l-4 2-5 3-4 17-8 11h-2l-2 5-5 5-8 7h-26l-6 2h-10l-15-8-3-4-1-5 1-1h44v-2l8-2v-2l9-7 1-3-1-3-6-2 1-5 7-2h6l1 4 5-1v-5l7 1z" fill="#845B5B"/>
<path transform="translate(217,314)" d="m0 0h7l6 4 2 5v10l3 9 1 22v53l-4 1v-2h-2l-3-7-2-13-7-19-4-11v-2h-2l-2-5-2-12v-14l2-1 12-1 2-1v-3l-5-2-8-1 1-5z" fill="#BE7C76"/>
<path transform="translate(396,160)" d="m0 0h6l4 3h13l7 3 8 2 10 8 4 4 5 10 4 4 5 12 1 6h2l3 9-1 11 2 11v8l-3 5-2 3h-10l-11 2v-5l4-6h2l-1-4 2-9-2-11v-18l1-2h-2l-4-6v-6l-3-3-2-5-6-9-4-4-6-3-1-3h-7l-5 1-6-2h-5l-3 1h-14l-8-3-7 1 3-2 6-1 8 1 12-2z" fill="#995D5C"/>
<path transform="translate(397,280)" d="m0 0 3 1v4h2v2h2v2l5 1 2 6v9l-5 1-3 3-1 2v10l-5 9v6l-2-2v-7l-1-3h2l-1-9-5-2-7-2v12l4 11v7l7 18 1 3v10l-5 4-6 1 1-2 5-2 2-3-1-9-3-10-4-11-2-9-3-13 1-11 4-3 3 2h3l1-7-3-7h-7l-1 2h-22l-3 2 1 9 1 12-2 9-3 5h-2l-2 5h-2l-2 6-7 12-2 4-11 1-2-1-1-4 5-3h2v-2l5-4 4-7 2-8h2v-4h2v-7l5-7-1-9-3-7 1-6 1-1 32-1 15-1 4-2z" fill="#855B5B"/>
<path transform="translate(298,254)" d="m0 0 6 1 2 2 8 2 4 4v2l6 1 4 1 1 2 10 4v2l6 2 3 7 3 2 12 2v1h-28l-2 1 5 3 1 3-1 1-12 1h-12l-2-5-2 6-3 2h-6l-3-2v5l-5 2-2-3-14 1-4-2v-8l5-5 8-3 13-5 7-2 1-1h7l2 2v3l-4 1v3l11 1 5-1 2-1 1-5 7-2 1-2-6-2-9-4-9-3-7-2h-8l-5 2h-14l1-5 4-5h2v-2z" fill="#B37F7B"/>
<path transform="translate(383,649)" d="m0 0h8l11 4 17 10 11 8 8 6 11 6 7 4 9 2v6l-10 19-8 16-11 19-9 15-12 19-10 16-11 17-15 22-10 16-12 19-3 3 2-6 15-23 8-14 8-11 7-10 1-3h2l2-6 16-26 11-17 6-9 6-11 9-16 13-26 1-7-10-3-16-8-4-5-10-7-22-12-8-4h-8l-7 1-21 1-9 5-2 2-15 4-5 3h-2v2l-10 7-10 2-6 3h-18v16l5 30 3 12 3 14 5 21 5 26 5 18 5 19 7 16 6 14 13 30 5 3 2-6 3-3-3 9-2 2h-5l-4-8-11-25-7-16-5-11-8-26-7-29-6-29-5-22-6-31-3-26 1-4 5 1 4 3h10l10-6 10-2 13-9 16-5 10-6 3-1 21-1z" fill="#958A95"/>
<path transform="translate(481,304)" d="m0 0h3v2h-2v22l2 2 4 20 9-1 6-1 3 4-2 9-3 15-3 21-3 9-3 5-5 6-2 6 2 4v3h2l1 3-2 5-5 4-1 2-8 2v2l-6 2-5 1-2 3-1 8-4 2-7-1-3 2-3-1 9-6 8-11 7-3 2-9h4l4 4 5-1-1-11 2-13 2-6-1-6-2-3v-8l3-12 3-4 8-2v-7l2-8-8-1-5 1-5-1v-13h-2l-1-2 1-18 1-9 1-10z" fill="#6A4745"/>
<path transform="translate(365,396)" d="m0 0h6l1 3-1 6h29l5 2 3 3-2 4-8 4-8 2-9 2-1 3-2-1h-5l-1 1h-16l-11-2v-3l-1-1-16-1h-6l-2-3 2-4 5-3 15-3 4-1h17z" fill="#A16D6B"/>
<path transform="translate(272,523)" d="m0 0 5 1 5 5 6 3v2l5 2 6 4 7 2 3 5 24 12 2 2 9 2h9l1 3 13 2 5 1h9l2-1 14-2 20-6 18-8 17-8 10-6 5-2 1-2 5-1-5 5-20 15-9 2-9 3-6 4-15 5-3 2-16 2-10 3h-14l-10-3-9-1-1-1h-18v-2l-4-2-4-6-4-3-13-4h-3v-2h-3l2 4 2 1v4l5 2 3 3-1 3-7-3-7-5v-2l-4-2-7-7-4-7-3-13-5-2z" fill="#A2706D"/>
<path transform="translate(314,177)" d="m0 0m-8 1h8v2l-16 6-15 9-6 8-5 12-3 13-2 11v11l3 6 2 2v3h2l1 5 5 1h15l5-2h8l14 4 9 4 8 4-1 3-6 1-3 7-7 1h-5l-5-2v-3l4-1-1-4 7 1-1-7-3-2-8-2-11 1-15 4-10 2-7 4h-5l-1-6v-10l-1-2 1-11-1-13-1-2v-6l2-2 2-9 5-7 5-12 3-6 4-4 7-4 2-3 7-1 2-2z" fill="#A06765"/>
<path transform="translate(483,412)" d="m0 0 1 2-2 13 1 11-2 2-6-1-2-4h-4l-1 9-8 4-9 12-11 7-9 3-4 2-5 5-5 4-4 3h-3l-1 3-3 3-1 7-4 2v2l-4 4-9 1-1 2-8 1v2h-2l-3-6-3-1-2 7h-2l-1-5-7-1-5 5-3 1-3 4-5-1-5-4-10-2-4-3-1-10-8-1-7-11-3-11-4-1-1-1-12-2-2 4-2 3h-2l-2-6-10-4-5-8-1-5 4 4 6 7 8 4 10-1h10l6 5 4 8 3 7v3l9 2 3 4 1 9 13 3 2 2 4-1 4-2 1-2 9-3 9 1 1-1h8l5 2 8-2h5v-9l8-9 13-8 4-2 5-5 3-7 1-3 5-2 6 1 9 1 2-4 6-9 6-11h2l2-4 5-4 4-2 4-11z" fill="#6B585C"/>
<path transform="translate(345,425)" d="m0 0 22 1 10-1 6 4-1 5-5 4-1 2-13 1-3 2h12l6 2 2 4-2 3-5 3h-2v2l-6 2h-14l-5-3-5-5-1-10-5-5-5-4 2-5z" fill="#BD7D77"/>
<path transform="translate(539,301)" d="m0 0 7 1 8 7 4 9 1 4v12l-3 11-2 8h-2l-2 10-3 14-4 6h-2l-1-6 1-9v-12l-3-10-2-7 1-11 8-12-8 2-5 1-3-4 1-6 7-7z" fill="#664543"/>
<path transform="translate(414,329)" d="m0 0 7 1 11 9 7 2h14l5-1 13 1 3 3v6l-1 2-14 1-16 4 3 2-2 1h-9l-3-2-12-2-9-3-4-3v-5l-1-1v-9h2v-2h2v-2z" fill="#B3716C"/>
<path transform="translate(382,644)" d="m0 0h14l5 4 3 3 11 7 23 16 9 6 10 5 10-2 2 6-11 23-12 23-4 6-1-2 10-18 9-19 4-7 1-6-9-1-17-9-7-6-21-14-16-8-4-1h-8l-7 1-21 1-8 4-7 4-14 4-13 9-12 3-8 5h-10l-5-4-4-1 1 15 4 26 6 30 8 35 6 27 9 31 5 13 7 14 15 35h5l7-13 1 2-6 13-2 1h-6l-7-15-8-19-8-17-6-16-7-23-6-26-4-19-8-34-3-17-6-39v-8l2-2 5 1 4 6v2l12-1 6-5 6-3h8l2-4 14-6 13-4 5-4 4-1 1-4 5-1h7l3 1v2l4-3h6z" fill="#5C4D51"/>
<path transform="translate(386,291)" d="m0 0 3 1 3 7-1 7-4 1-4-2-2 2-1 11 3 13 4 15 3 7 3 13-1 5-4 4-16 8-7 1-8-3h-10l-3 1-12 1-1 3 4 2v4l-5 3h-2v2l-7 3-9 1-10 4-5 7v9l1 3 5 2 3 3 10 1-4 3-5 4-3 3h-2l1-6-4-8-2-1v-2h-3l-1-4v-7l2-4 2-9 3-4 17 1 8-2 5-2-1-9 1-2 12-1 7-3 9 1 10 3 14-8 2-3 1-8-3-5-5-15-1-6v-4l-2-5v-17l1-2h2l2-6 3-4 3-1z" fill="#A06866"/>
<path transform="translate(474,349)" d="m0 0 4 3-1 6h6l7 2v6l-4 4-5 17-4 10-3 10-2 13-4 6h-2v2h-2l-6 12h-2l1-6 3-9v-17l-1-9 3-5 3-1 1-5 5-6h3l1-4 2-2 3-13-8-1-1-3-6-2-3 1h-11v2l-10-2 2-2 16-4h14z" fill="#9F6664"/>
<path transform="translate(512,482)" d="m0 0 4 1 3 5 2 9 5 11 1 3v14l-2 11h-1l1-23-6-12-6-5-8 3-7 7-2 3h-2l-1 3-10 2-1 3-10 10-9 5h-2v2l-14 8-5 3-9 3-5 2-25 3-3 1-28 1-20-2-19-6-12-6-13-8-12-9-9-6-7-8-4-4v-2h-4v12l-2 8-1-3v-14l-1-7 1-2 5 1 6 7 8 8v2l5 2 10 8 6 5 11 6 16 8 18 5 16 1 7 1 20-1 29-5 5-3 8-2 5-3 11-8 6-4 6-3 8-6 9-8 7-4 7-2 6-6h2l2-4 2-7z" fill="#4E3534"/>
<path transform="translate(335,288)" d="m0 0 11 1-1 7 3 7 1 9-5 7-1 7h-2v4h-2l-1 4-1-7-4-1-1-3-5 1v6l-5 4h-2v2l-11 6-6 1h-25v2h-6l-5-5-4-1-2-4 1-5 1-2 6-1 2 4-1 8 11-2 7-1h16l10-4 6-7 8-6 5-2v-5l3-3-2-4-5-3-15-1-3-4v-6l2 2 1 5 3-1h14l7-1-2-4-4-2z" fill="#A16F6C"/>
<path transform="translate(311,297)" d="m0 0 3 3 15 1 8 6-2 5h-2l1 5-2 2-5 2-5 4h-2l-2 4-3 1-2 4-9 3h-16l-13 2h-5v-8l2-4-1-3h2l2 5 7-1 2-3h5v-9l5-1 3 6 14-1 4-9h2v-2l6 1-2-5-5-1-5-3-1-3z" fill="#A06765"/>
<path transform="translate(267,527)" d="m0 0h1v20l-2 24-2 34-1 14 3 12 4 1 1-2 4-39 2-5 8 1 27 10 20 8 11 5 2 8-8 6-3 1-9-3-11-5-8-11-2-7 1-1-14-6-11-4h-2l-4 33-1 15-1 1h-6l-4-9-2-8v-12l1-8 2-36z" fill="#4F4348"/>
<path transform="translate(217,312)" d="m0 0 9 1 5 4 1 4h2l1 15 2 12v10l2-1 1-3 2-25 2-12h4l3 5 1 4 3 1 1-3v10l-4-1-4-11v-3h-3v7l-1 9v8l-1 5v24l1 10 3 8 5 19 3 6-1 3-3-4-5-14-2-6v-2h-2v6h-1l-1-12h-3l1 32-2 2-5-1-4-5-3-16-6-15-5-16 1-3 6 16 7 19 2 13 1 4h2v2l3-1v-53l-1-22-3-11v-8l-3-6-4-2h-7l-4 4-2 5h8l6 3-1 4-2 1-14 1 1 14 1 9-3-4-2-7v-13l3-12 5-6z" fill="#875B5B"/>
<path transform="translate(268,358)" d="m0 0 8 3 7 1h17l7 1h6l6 2 1 3-24 16-7 1-11 1-5-1-4-14-2-10z" fill="#C58B86"/>
<path transform="translate(432,360)" d="m0 0 21 1h9l10 2 1 4v2h-2l-4 8-8 5-5 5h-11l-3-2v-2h-2l-2-7-5-2-6-5-1-5z" fill="#BF7D77"/>
<path transform="translate(214,310)" d="m0 0h11l6 3 3 4 2 13 1 1 4-19 1 4-2 13-1 14h-2l-3-7v-15h-2l-4-6-5-2h-6l-6 4-3 6-2 9v13l6 17 9 26 5 13 2 13 4 5 5-1v-28l3 2 1 12 2 4 1 9v8l2 5 1 9 5 9v8l3 7 4 5 1 4 6 2 2 4h2l2 6 9 3h5l2-7 2-4 4-1 4 3 4 2-2 1-7-2v2h-2l-1 5-3 5-5 1-12-6-6-5-6-8-9-15-4-11-2-7-2-13v-5l-4 1-7-2-4-6-4-19-6-14-6-19-6-14-1-4v-18l3-9 5-6z" fill="#5B403F"/>
<path transform="translate(422,296)" d="m0 0h2l2 4 16-1v2l-3 2v8l-5 2v2h7l5-3 3-3 4 1 1 5-2 3-1 11h9l8 2h4l2-5 1-4v-15l-1-6 3-5h6l3 3-2 5-3 1-1 16-1 3-1 20h2l1 2-1 11h2v2l-5-1v-6l-3-3-1-8-7-6-5-2-12-3-6-4-7-3-2-5-4-4-4-8-12 1-1-2 8-1z" fill="#835B5B"/>
<path transform="translate(267,359)" d="m0 0 1 2 2 10 3 14h11l10-1 11-7 14-10v-2l-6-1v-2l5-1h8l2 3-1 5-5 5-9 2-12 9-4 5-4 4-5 3h-8v2l-10-2-4-4-2-4v-5l-3-1-2-16-1-5 5-2z" fill="#C07D77"/>
<path transform="translate(352,388)" d="m0 0h10l14 7 2 5-1 3 6-1h11l10 1 8 6 4 2v4l-4 2-11 2-4 2v2l8 3 2 4 2 2-4-1-5-4-17-1-2-1v-3l11-4 8-2 7-4 1-2-3-1-1-2-4-1h-29l-1-3 1-6-6-1-1 8-1 1h-10l-5-2-13-2 3-1 2-5 2-2v-4z" fill="#845B5B"/>
<path transform="translate(345,168)" d="m0 0h5l-3 2-6 3-12 2-7 2-16 2-9 3-1 1-7 1-5 5-4 1-2 4h-2l-1 4-5 11-4 8-3 4-1 7-2 2v6l1 6 1 10-1 10 1 2v16h5l-3 3-7 3-3 4h-2v6h2v5h-6l-2-1 1-9 4-11 4-9 1-13 1-6-1-2v-18l4-14 8-16 3-5 5-7h2v-2l10-6 14-6 20-2 9-3 12-2z" fill="#995D5C"/>
<path transform="translate(373,423)" d="m0 0h6l4 2 18 1 3 3 1 6-1 1h-5l-1-3h-6l-7 2-1 4 7 2 1 4-5 6-4 3h-2v2l-8 3-4 1h-22l-12-4-3-3-2-6-1-6-1-5 2-3 5 2 5 4 1 3 1 9 5 5 4 2h14l6-1v-2l7-4 1-3-1-3-6-1h-13l-3-2 7-2h13l1-3 5-5-1-4-9-3z" fill="#B2716C"/>
<path transform="translate(237,386)" d="m0 0h3l3 17 5 12-1 6 1 5 4 1 1 12 3 5 1 4 7 4 5 10 2 3 10 4 1 1v5l5-5 1-2 12 1 5 3 2 7-8-8h-8l-5 8-3 1-1 5-7-3-2-4-4-1-4-6-2-9-1-3-8 1-3-4v-8l-5-9-2-12-1-2v-9l-2-11-2-7v-6l-1-1-2 4v-7z" fill="#6A4745"/>
<path transform="translate(309,564)" d="m0 0 6 1 9 4 5 5 10 6 3 2v2l20 2 11 2 11-2 16-1-5 5-13 8-10 4-6-1-6-3v-2l-6-2-16-8-12-7-20-12z" fill="#B37F7B"/>
<path transform="translate(297,298)" d="m0 0 4 2h6l4-1 2 3 8 1 2 3v4l-6-1v2h-2l-3 9-1 1-14 1-2-2-1-6-5 1-3 6-4 4-7-1-3-3-7-1-3-3 1-3 5 1 3 2 1-2h2l2-4 3-2 16-2 4-3v-2l-2-1z" fill="#6C5A5F"/>
<path transform="translate(414,376)" d="m0 0h2l2 4-1 7-6 4-8 3-3-1h-7l-3 3-8 2h-5l-2-3-10-4-3-2h-22v-2l-3-1v-2l10-2h10l5 3 11 1 8-5h9l10 2h6l6-4z" fill="#6A4745"/>
<path transform="translate(272,503)" d="m0 0 4 1 7 8 5 6 9 6 11 8 13 8 14 7 17 5 25 2 23-1 9-2 19-2 10-4 8-3 7-5 6-3h2v-2l13-7 6-8 5-4 6-1-2 4-6 5h-2v2h-3l-1 3-15 10-11 6-8 5-16 7-12 3v-2l-11 1-4 1h-27l-27-3-22-9-12-7-8-6-4-2v-2l-5-2-5-4-6-4-8-7h-1l-2 9-2 1v-17z" fill="#6A4745"/>
<path transform="translate(356,292)" d="m0 0h24v2h-22l-3 2 1 9 1 12-2 9-3 5h-2l-2 5h-2l-2 6-7 12-2 4-11 1-2-1-1-4 5-3h2v-2l5-4 4-7 2-8h2v-4h2v-7l5-7-1-12 2 1 4-7z" fill="#A06765"/>
<path transform="translate(278,527)" d="m0 0 10 5v2l5 2 6 4 7 2 3 5 24 12 2 2 9 2h9l1 3 13 2 5 1h9l2-1 14-2 20-6 18-8 17-8 10-6 5-2 1-2 5-1-5 5-20 15-9 2-9 3-6 4-15 5-3 2-16 2-4 1h-15l-11-2-19-4-12-5-9-5-8-4-5-4-11-6-10-3-6-5z" fill="#A06765"/>
<path transform="translate(410,634)" d="m0 0 16 1 7 2 7 6v2h24l1 4-6 11-1 8-4 1-7-10-4-2-3-7v-4l-14-1-11 2-7-7v-5z" fill="#4E4247"/>
<path transform="translate(396,456)" d="m0 0h2l-1 8-8 7-7 2h-12l-6-1-12 2-8-1-6-3-3-3v-3l44-3 8-3z" fill="#6A4745"/>
<path transform="translate(215,349)" d="m0 0h4l2 9h2l3-3h4l2 6 2 4 1 14-1 3v31l-4-1-2-8-2-10-3-9-1-7-4-9-4-6-1-5 1-3z" fill="#BE7D77"/>
<path transform="translate(346,163)" d="m0 0m-7 1h7v2l-9 3-20 4-11 1-18 6-11 7-6 7-11 19-4 9-3 12-1 7v12l2 17-3 9-5 13h-2l1-6 2-8v-16l-1-1 1-16 2-10 4-14 8-17 5-8 9-13 11-7 19-6 21-3 6-2z" fill="#6A4745"/>
<path transform="translate(533,304)" d="m0 0 2 1-5 6 1 6 3 1 5-2h6l-2 5-4 5-2 10 1 9 3 9 1 2v12l-1 15 4-4 3-10 4-16h1l-1 9-4 16-5 13-2 16-5 5-4-1-1-1v-8l4-11 1-2 1-12v-14l-2-17-2-6v-10l1-5v-3l-4-1v-2h-2v-9z" fill="#4E3533"/>
<path transform="translate(432,317)" d="m0 0 3 1 2 5 9 4 5 3 13 3 8 6 2 2-1 3v-2h-9l-7-1-7 1h-11l-7-2-9-8 1-5-1-3 1-2h7z" fill="#A06765"/>
<path transform="translate(363,348)" d="m0 0h6l6 4 3 7 2 5-1 7-6 4-5 2h-6l-2-1v-2l-4-1-4-4-1-4 6-14 2-2z" fill="#C58B86"/>
<path transform="translate(402,279)" d="m0 0h13l8 5-1 6 1 5-2 9-7 2h6l6-1 3 4 1 5-3 4-8-2h-10l-3-3-1-4 4-1 1-8v-6l-2-4-4-1v-2h-2z" fill="#958A95"/>
<path transform="translate(345,425)" d="m0 0 22 1 10-1 6 4-1 5-6 5h-12l-2 1h-12l-8-2-9-7 3-3 4-1z" fill="#C38984"/>
<path transform="translate(263,339)" d="m0 0 5 1 2 4 7 2v2h7l5 3 1 2 5 1h17l7-1-3 3-2 5 4 1-14 2-10-1h-11l-9-2-6-2-5 2-2-1-1 2-1 3 1 3-2 1-2-3v-9l3-5 7 1 3 2 6 2 6 1 13 1v-3l-10-1-16-5-4-4z" fill="#B37E7A"/>
<path transform="translate(440,303)" d="m0 0h24l8 1 2 2v17l-4 3h-10l-3-5-3-11h-7l-1 3-5 3-7-1-1-3 6-1z" fill="#4E3533"/>
<path transform="translate(347,406)" d="m0 0 16 1 15 1v-2h10l4 1-1 4-4 3-5 2-8 1-5 3-4 1-5-2v-2l-4 1-12-3h-10l-2-1 1-4 5-3z" fill="#B4716C"/>
<path transform="translate(346,165)" d="m0 0h12l3 2-10 2h-6l-6 2-10 2-7 2-20 2-18 8-4 3h-2v2l-5 5-3 6-4 7-6 12-3 14v17l1 5-3 12-2-1-2-14v-12l3-14 3-9 6-12 10-16 7-6 10-6 16-5 15-2 16-3z" fill="#855C5B"/>
<path transform="translate(437,276)" d="m0 0h7l2 7 2 1v2l4 2 2 2v4l-14 3-5 2-9-1-4-3-1-8 1-3-7-4 4-1v2h16v-4z" fill="#A6706C"/>
<path transform="translate(421,426)" d="m0 0h6l-4 2-5 3-4 17-8 11-2-1 6-8 2-6v-5l-5-1-6 7-2 5-6 4-3 3-9 3h-8v-2l8-2v-2l9-7 1-3-1-3-6-2 1-5 7-2h6l1 4 5-1v-5l7 1z" fill="#985D5C"/>
<path transform="translate(447,273)" d="m0 0 8 1 5 4v2l2 1-5 2 2 5h2l1 3 2 1v6l-13 2h-12l-13 1-2-4 11 1 13-4h6l-2-5-4-3v-2l-3-1-1-6h-9l1 4-4 1-13-1v-2h-8v-1l18-2 8-2z" fill="#835B5B"/>
<path transform="translate(383,310)" d="m0 0 7 2 5 3 1 2v7h-2l-1 9 6 11 5 7-1 7-3 2-5-1-4-10-5-15-4-11v-12z" fill="#684644"/>
<path transform="translate(302,270)" d="m0 0h8l9 3 2 2v3l-3 1h-11l-3 2-16 3-4 2-8 1-5 4h-2l-2-4 1-5 3-1 1-2 14-4z" fill="#6C585C"/>
<path transform="translate(300,265)" d="m0 0h8l14 4 9 4 8 4-1 3-6 1-3 7-7 1h-5l-5-2v-3l4-1-1-4 7 1-1-7-3-2-8-2-11 1-15 4h-12l1-7 2-1 5 1h15z" fill="#A16F6C"/>
<path transform="translate(407,304)" d="m0 0 3 2-1 2-3 2 1 5h12l8 3 2-4h2l2 5h-2v3h-7l1 7-3 3-3-2-9 1v2h-2v2h-2v4h-3l-1-10 2-3-1-9h-2v-6l3-5z" fill="#A16F6C"/>
<path transform="translate(402,317)" d="m0 0 2 4 1 5-2 3 1 7-1 3h3v5l2 1-1 5 4 2 9 3 12 2v2h-7v2l-12 1 2 5 3 1 4 4v2l3 1-1 5v11l8 2v2l4 2 8 5 3 5-2 9h-1l-1-9-5-5-6-5-11-3-1-1v-6l1-7-2-7-8-7-2-5 1-2h6v-3l-7-2-5-5v-2h-2l-5-9-1-8 5-9z" fill="#A06765"/>
<path transform="translate(474,349)" d="m0 0 4 3-1 6h6l7 2v6l-4 4-5 17-4 10-3 10-2 13-4 6h-1l-2-7-1-2v-9h2l1-7 4-5 8-18 3-10 2-1 1-5-9-2-4-2-1-6h2z" fill="#995D5C"/>
<path transform="translate(325,325)" d="m0 0 2 3-2 4-5 2v2l-11 6-6 1h-25v2h-6l-5-5-4-1-2-4 1-5 1-2 6-1 2 4-1 8 11-2 7-1h16l10-4 7-3z" fill="#B4716C"/>
<path transform="translate(299,281)" d="m0 0 4 1-5 4v18l-5 2-2-3-14 1-4-2v-8l5-5 8-3z" fill="#A16F6C"/>
<path transform="translate(422,243)" d="m0 0 5 3 5 6-1 5-10 4-9 3-5 1-2 4-6 4-4 2h-8v-2l10-5 5-4 3-4 2-8 10-2v-2h2l1-3h2z" fill="#B37F7B"/>
<path transform="translate(267,527)" d="m0 0h1v20l-2 24-2 34-1 14 3 12 4 1 1-2 4-39 2-5 8 1 27 10-4 1-9-3-19-7h-2l-4 33-1 15-1 1h-6l-4-9-2-8v-12l1-8 2-36z" fill="#625155"/>
<path transform="translate(415,403)" d="m0 0 14 1 5 2 1 1v9l-7 4-1 2-7 3-2 3-6 2-5-1-2-5v-3l4-2 10-2v-6l-5-6z" fill="#4E3737"/>
<path transform="translate(368,278)" d="m0 0 29 1 1 6-5 3-15 1h-15l-8-2v-2l-3-1 2-3z" fill="#B9BACC"/>
<path transform="translate(393,392)" d="m0 0h5l1 4 4 2 5 3 3 4 7 3 2 3v6l-3 2-12 2 3 8 10-1-4 3-5 1-4-4v-2l-8-2v-4l8-3 11-2-1-4-7-4-4-3-10-1h-17l1-5 7-2h5l1-3z" fill="#6A4745"/>
<path transform="translate(448,415)" d="m0 0h5l3 8v6l-3 9-5 10-1 1h-5l-5-5 1-7 5-11 4-10z" fill="#B37E7A"/>
<path transform="translate(410,368)" d="m0 0 9 4 2 2 1 11-1 2v6l11 3 11 9 1 2v9l-2 7-11 5-8-2 1-2 13-5 3-1v-7l-7-9-3-2-12-1-6-3v-4l4-2 2-4v-8l-2-4-4-1-2 6-4 1 2-4 1-7z" fill="#8A5C5B"/>
<path transform="translate(348,482)" d="m0 0h12l5 1 7-1 6 4 4 4-1 3-4-1-5-2-5 3-3 2h-7v2h-11l-2-6 2-4z" fill="#B37F7B"/>
<path transform="translate(497,404)" d="m0 0 2 2-1 6-4 8 1 7-3 11-7 9-4 7-4 4-3 6h-2v-2h-6l3 6 1 3-1 2h-11l-8-3-4-2h2v-2h6l2 1v2l5-2 2-2 1-7 3-3 8-1 5-5h2l1-5 7-7 1-10h-3l-1-6 7-9h2l1-5z" fill="#4E3533"/>
<path transform="translate(380,405)" d="m0 0h20l5 2 3 3-2 4-8 4-8 2-9 2-1 3-2-1h-5l-1 1h-7l-3-2 11-6 1-1 10-2 6-3 2-4-12-1z" fill="#9F6664"/>
<path transform="translate(239,420)" d="m0 0h3l1 6 2 1 2 12 5 9v8l3 7 4 5 1 4 6 2 2 4h2l2 6 9 3h5l2-7 2-4 4-1 4 3 4 2-2 1-7-2v2h-2l-1 5-3 5-5 1-12-6-6-5-6-8-9-15-4-11-2-7-2-13v-5l-4 1-5-1v-1z" fill="#4E3534"/>
<path transform="translate(325,555)" d="m0 0h13l4 2h15l1 1 10 2 7 5 18 2v1l-10 1-2 1h-9l-16-3-3-3h-9l-9-2-3-3-7-3z" fill="#995D5C"/>
<path transform="translate(327,401)" d="m0 0 4 1v2h-3v2l-10 5-1 1v9l4 4-3 3-6-1-5-3-7-5v-6l4-5 6-2 9-2z" fill="#6A4745"/>
<path transform="translate(550,319)" d="m0 0 4 2 1 3v13l-5 17h-4l-3-7-1-3v-14l4-8z" fill="#BF7F79"/>
<path transform="translate(382,647)" d="m0 0h11l12 6 5 2 11 7 17 12 9 6 10 5 10-2 2 6-11 23-12 23-4 6-1-2 10-18 9-19 4-7 1-6-9-1-17-9-7-6-21-14-16-8-4-1h-8l-7 1h-21v-1l19-1z" fill="#5E4E53"/>
<path transform="translate(407,437)" d="m0 0 5 1 1 1-1 7-3 7-4 5-5 9-11 9h-9v-1l7-1 7-8 3-5 1-5-5 2-9 1 2-2 5-2 6-5 2-1 3-7z" fill="#875C5B"/>
<path transform="translate(277,712)" d="m0 0h1l7 35 8 35 6 27 9 31 5 13 7 14 15 35h5l7-13 1 2-6 13-2 1h-6l-7-15-8-19-8-17-6-16-7-23-6-26-4-19-8-34-3-17z" fill="#5E4E53"/>
<path transform="translate(441,553)" d="m0 0h5l-5 5-11 7-10 7-9 7-1-2-2-1v-1h-7l-3-4 2-2 8-2 12-5 5-2 6-4z" fill="#B27E7A"/>
<path transform="translate(226,316)" d="m0 0 4 2 2 5v10l3 9 1 22v53l-4 1v-2h-2l-3-7-2-13-7-19-4-11v-2h-2l-2-5 1-3v2h2l5 10 3 5 3 9 2 10 2 4 2 16 4 1-1-15v-16l1-8-1-9-1-26-2-5v-9l-3-7z" fill="#A26C6A"/>
<path transform="translate(386,291)" d="m0 0 3 1 3 7-1 7-4 1-4-2-2 2-1 11 3 13 4 15 3 7 3 13-1 5-4 4-9 3v-2l10-6v-10l-7-15-2-13-1-1-3-17 2-11 4-5 3-1z" fill="#A06865"/>
<path transform="translate(244,292)" d="m0 0h1l-1 10 7 1 2 1-2 4-1 4h-4l-3 7-2 15-2 24h-2l-2-21 2 3v3h2v-14l3-19-2 1h-6l-2-1v-9l1-2 8-1z" fill="#684746"/>
<path transform="translate(394,288)" d="m0 0h4v3l4 2-5 10-5-3-3-4-1-4-32 1-5 5-1 6-4-5-2-3 1-6 1-1z" fill="#7F5A59"/>
<path transform="translate(312,438)" d="m0 0 4 1 3 5-1 10 3 6-1 8h-6l-7-11-1-8-1-6 4-4z" fill="#B37F7B"/>
<path transform="translate(471,533)" d="m0 0 2 1-11 9-6 4-8 6-9 2-9 3-6 4-15 5-3 2-16 1 3-1v-2l22-6 20-9 17-8 10-6 5-2 1-2z" fill="#A26E6B"/>
<path transform="translate(260,323)" d="m0 0 9 3-3 2h-3l-1 7 1 1 2 10 3 3 16 5 10 2v3h-17l-3-2-7-2-9-5-6-7 1-2 3 3h3l-1-19z" fill="#A26F6C"/>
<path transform="translate(217,314)" d="m0 0h7l5 5 2 7v10l-7-1-10 2-2-1-1 2-1 1-1 8h-1v-14l2-1 12-1 2-1v-3l-5-2-8-1 1-5z" fill="#B4716C"/>
<path transform="translate(307,278)" d="m0 0h7l2 2v3l-4 1-1 14-4 3h-6l-4-3v-13z" fill="#958A95"/>
<path transform="translate(263,199)" d="m0 0 1 3-5 8-5 11-4 14-2 10v8l-1 8 1 1v16l-6 20-1 1h-5l4-2 3-12 1-12-2-9 1-13 5-23 7-16 5-10z" fill="#4E393A"/>
<path transform="translate(437,248)" d="m0 0h2l3 11-9 3-18 5-12 8-13 2v1h-6v-2l11-2 10-6 2-3 10-4 12-4 3-7z" fill="#A16F6C"/>
<path transform="translate(375,308)" d="m0 0h2l1 9 2 14 1 1 2 13 7 15v10l-11 7-3-1 6-3 2-3 1-8-3-5-5-15-1-6v-4l-2-5v-17z" fill="#B4716C"/>
<path transform="translate(383,402)" d="m0 0h11l10 1 8 6 4 2v4l-4 2-11 2-4 2v2l8 3 2 4 2 2-4-1-5-4-17-1-2-1v-3l11-4 8-2 7-4 1-2-3-1-1-2-13-2v-2h-8z" fill="#835B5B"/>
<path transform="translate(434,320)" d="m0 0h2l1 3 9 4 5 3 13 3 8 6v1h-5l-4-3h-15l-13-4v-2l-4-2-2-4 3-3h2z" fill="#995D5C"/>
<path transform="translate(513,495)" d="m0 0 7 6 6 12v9l-2 20-3 1 1-16v-12l-2-6h-2l-4-7-3-2-5 1-6 5-9 11-4 5-7 3-7 5-2-1 6-4 1-2h3v-2l8-6 5-6 5-5 8-7z" fill="#6F585B"/>
<path transform="translate(245,316)" d="m0 0 4 2 3 8 3 1 1-3v10l-4-1-4-11v-3h-3v7l-1 9v8l-1 5v24l1 10 3 8 5 19 3 6-1 3-3-4-5-14-3-8-2-18-1-2v-18l2-25 2-12z" fill="#995D5C"/>
<path transform="translate(503,295)" d="m0 0 1 3 9-1 3 4-1 5-6 2-4 1-2 6-8-1-3-4 1-5 4-1 4-8z" fill="#684644"/>
<path transform="translate(215,349)" d="m0 0h4l2 9h2l3-3h4l2 6 2 15-1 3-4 1-5-10-1-7-7-1-2-7z" fill="#C58B86"/>
<path transform="translate(543,321)" d="m0 0v3l-3 9v8l5 17v2l3-1 4-9 1 3-4 16-3 10-3 4h-2l-1-6 1-9v-12l-3-10-2-7 1-11z" fill="#6A4745"/>
<path transform="translate(255,397)" d="m0 0 3 2 4 9 2 10 5 5 4 6 7 4v2l6 2-1 3v-2l-10 2-5-4-3-5-4-2-6-10 1-4v-9l-3-6z" fill="#A2706D"/>
<path transform="translate(290,315)" d="m0 0 5 1 2 5 2 2-4 3v6l-1 2-14 2h-6l-3-12h2l2 5 7-1 2-3h5v-9z" fill="#995D5C"/>
<path transform="translate(358,260)" d="m0 0h13l4 3-1 6-3 4h-3l-1 3-6-1-2-1v-2l-4-2-2-3v-5z" fill="#BABBCD"/>
<path transform="translate(420,342)" d="m0 0 6 2 12 1 5 5 5 3v1l-14 2-13-2-2-1-2-8z" fill="#BF7D77"/>
<path transform="translate(265,205)" d="m0 0 1 3-6 12-3 14v17l1 5-3 12-2-1-2-14v-12l3-14 3-9 5-10z" fill="#835B5B"/>
<path transform="translate(512,482)" d="m0 0 4 1 3 5 2 9 5 11 1 3v14l-2 11h-1l1-23-6-12-6-5-8 3-7 7-2 3h-2l-1 3-8 1 3-2 7-5 9-9h2l2-4 2-7z" fill="#4F4145"/>
<path transform="translate(311,297)" d="m0 0 3 3 15 1 8 6-2 5h-2l1 5-2 2-5 1-4-4v-3l-4-2-2-2 6 1-2-5-5-1-5-3-1-3z" fill="#865C5B"/>
<path transform="translate(458,340)" d="m0 0 13 1 3 3v6l-1 2-14 1-16 4 3 2-2 1h-9l-2-1v-2l4-2 12-2 9-6 1-5z" fill="#A16F6C"/>
<path transform="translate(330,433)" d="m0 0 5 2 5 4 1 3 1 9 5 5 4 3h-8l-9-4-2-2-2-6-1-6-1-5z" fill="#B4716C"/>
<path transform="translate(411,300)" d="m0 0 1 3 7 1v1l-5 1h6l6-1 3 4 1 5-3 4-8-2h-10l-3-3-1-4 4-1z" fill="#958A95"/>
<path transform="translate(312,287)" d="m0 0 11 1 13-1-3 3 5 3 1 3-1 1-12 1h-12l-3-10z" fill="#B37F7B"/>
<path transform="translate(384,382)" d="m0 0 11 2 11 1 9-2-1 3-8 4h-11l-13 2h-7l-3-3 3-3z" fill="#221D20"/>
<path transform="translate(279,309)" d="m0 0 10 1-1 4-3 8-3 3-7-1-3-3-7-1-3-3 1-3 5 1 3 2 1-2h2l2-4z" fill="#6A4745"/>
<path transform="translate(382,463)" d="m0 0h9l-1 5-8 3h-13l-5-1h-12l-2-1v-2l4-2z" fill="#4E3533"/>
<path transform="translate(414,376)" d="m0 0h2l2 4-1 7-6 4-8 3-5-2-16 1h-8l-5-2 1-4 11-6h9l10 2h6l6-4zm-30 6-10 5-2 3 3 2 16-1 8-1h7l9-5v-2l-9 2-11-1z" fill="#4E3533"/>
<path transform="translate(422,296)" d="m0 0h2l2 4 16-1v2l-3 2v8l-5 2v2h7l4-2-1 5-7-1-7-3-4-8-12 1-1-2 8-1z" fill="#695457"/>
<path transform="translate(381,291)" d="m0 0h5l1 4-2 3-4 2-4 8h-2l-1 2-2-8 1-5-4-2-9 1-2 5 1 8 1 12-2-3-2-10-2-6v-6l4-3h17l5 1z" fill="#B27F7B"/>
<path transform="translate(322,411)" d="m0 0 2 1v4l14-2 10 1 10 2h2v2l5 1v3 2h-9l-11-2v-3l-1-1-16-1h-6l-2-3z" fill="#A06765"/>
<path transform="translate(427,266)" d="m0 0h9l10 1 3 3-2 2-23 3-4 1h-7l2-5z" fill="#534346"/>
<path transform="translate(477,296)" d="m0 0h6l3 3-2 5-3 1-1 16-1 3-2 17h-1l-1-7-4-2 3-4 1-6v-15l-1-6z" fill="#6B585B"/>
<path transform="translate(349,627)" d="m0 0h21l4 2v6l-7 2-8-2-12-2 1-5z" fill="#4E4247"/>
<path transform="translate(475,307)" d="m0 0h1v15l-2 7-2 3-9-1-12-2v-11l2-5 1-3 3 7 3 9 10-1 3-2z" fill="#6A4745"/>
<path transform="translate(398,467)" d="m0 0h2l-1 3v8l4 1 2 1-5 4-9 5-3 1-1 3-1-2 1-3 6-2 1-4-10-2h-8l-4-4 17-1z" fill="#A06765"/>
<path transform="translate(349,407)" d="m0 0h14l19 1 1 3-3 2-9 1-1 3-5 1v-2l-10-3-6-4z" fill="#B47E7A"/>
<path transform="translate(429,264)" d="m0 0h17l8 2 9 1-3 2-10-1-2-1h-21l-12 5-2 4 11-2 9-1h13v1l-14 2-8 2-15 1-5-1 1-3 5-3 9-5z" fill="#6B585B"/>
<path transform="translate(277,586)" d="m0 0 8 1 27 10-4 1-9-3-19-7h-2l-4 33-1 15-1 1h-6l-4-9-2-8v-12h1v11h2l3 12 4 1 1-2 4-39z" fill="#5D4D52"/>
<path transform="translate(440,741)" d="m0 0 1 2-10 18-7 11-9 14-12 19-20 30-7 10-3 3 2-6 10-14 10-15 9-14 15-24 16-26z" fill="#5F4F53"/>
<path transform="translate(359,504)" d="m0 0 7 1 1 1v5h2l2-7 4 1 2 6h2v-2l8-1 1-3h7l-4 3h-2l-1 4-17 3-6 3-3-4 1-6-1-2-4-1z" fill="#6A4745"/>
<path transform="translate(269,498)" d="m0 0 5 1 6 7 8 8v2l5 2 10 8 6 5 11 6 4 2 2 4-5-2-13-8-12-9-9-6-7-8-4-4v-2h-4v12l-2 8-1-3v-14l-1-7z" fill="#4E3837"/>
<path transform="translate(363,294)" d="m0 0 9 1 2 2-1 5-4 7h-2l-1 3h-3l-5-11 1-5z" fill="#C58B86"/>
<path transform="translate(312,346)" d="m0 0 6 2 1 4-7 3h-17l-6-2 2-4z" fill="#C58B86"/>
<path transform="translate(373,423)" d="m0 0h6l4 2 18 1 3 3 1 6-1 1h-5l-1-3h-6l-7 2-1 4 2 1-4-1 2-10-12-4z" fill="#A26E6B"/>
<path transform="translate(383,310)" d="m0 0 7 2 5 3 1 2v7h-2l-2 6-2-1-1-3-4-1-2 1-1-6v-9z" fill="#6B585C"/>
<path transform="translate(397,280)" d="m0 0 3 1v4h2v2h2v2l5 1 2 5-2 2-2 6h-9l1-5 2-5-4-2 1-3-4 1h-16v-1l15-1 4-2z" fill="#A4716E"/>
<path transform="translate(407,352)" d="m0 0 9 4v3h-6l1 4 3 5 2 3-6-2-2 9-1 1h-6l-1-2v-6l4-6 4-8z" fill="#995D5C"/>
<path transform="translate(290,427)" d="m0 0h5l4 8-1 10-4 4-4-1-2-2 1-12-1-1v-5z" fill="#B37F7B"/>
<path transform="translate(298,400)" d="m0 0h2v2l10-1-2 2-7 3-4 6v9l1 3 5 2 3 3 10 1-4 3-5 4-3 3h-2l1-6-4-8-2-1v-2h-3l-1-4v-7l2-4 1-7z" fill="#A06765"/>
<path transform="translate(549,316)" d="m0 0 5 2 2 4v15l-3 13-5 10h-3l-6-19v-8l3-9 5-7zm1 3-5 4-3 7v14l3 9 4 2 4-10 2-8v-13l-3-5z" fill="#865B5B"/>
<path transform="translate(392,405)" d="m0 0h8l5 2 3 3-2 4-8 4-8 2-9 2-1 3-2-1h-10v-2l12-2 10-6 11-2-2-4-7-2z" fill="#995D5C"/>
<path transform="translate(475,283)" d="m0 0 2 3-2 5 5 3 5 2 6 3 1 2-8 3 1-5-2-2h-6l-2 6v14h-1l-1-11-1-1-8-1-1-2 6-3 1-6-1-5 5-2z" fill="#504246"/>
<path transform="translate(423,284)" d="m0 0h10l7 3 1 5-3 2-15 1-2-5 1-5z" fill="#B27E7A"/>
<path transform="translate(434,363)" d="m0 0h6l7 4 2 5-4 6-4-1-6-5-5-3 1-4z" fill="#C58B86"/>
<path transform="translate(213,364)" d="m0 0 3 4 8 23 3 8 2 13 1 4h2v2l3-1v-32l4-6h1v7h-3l1 32-2 2-5-1-4-5-3-16-6-15-5-16z" fill="#7E5A5B"/>
<path transform="translate(214,310)" d="m0 0h11l6 3 3 4 2 13 1 1 4-19 1 4-2 13-1 14h-2l-3-7v-15h-2l-4-6-5-2h-6l-6 4-4 4-2 6-1-4 4-8z" fill="#5C4140"/>
<path transform="translate(448,415)" d="m0 0h5l3 8-2 4-4 4-1 6-3 5h-4l1-9 3-4h2l-1-2v-11z" fill="#C07D77"/>
<path transform="translate(320,433)" d="m0 0h8l1 5 2 9 1 5-4-1-5-3v-2l-3-1-2-5v-6z" fill="#A06765"/>
<path transform="translate(402,317)" d="m0 0 2 4 1 5-2 3 1 7-1 3h3v5l2 1v7l-4-3v-2h-2l-5-9-1-8 5-9z" fill="#9F6664"/>
<path transform="translate(382,644)" d="m0 0h14l5 4 6 6-6-2-8-4h-11l-8 2-22 1 1-4 5-1h7l3 1v2l4-3h6z" fill="#4E4247"/>
<path transform="translate(440,303)" d="m0 0h23v1h-9v6h-7l-1 3-5 3-7-1-1-3 6-1z" fill="#4E3E41"/>
<path transform="translate(378,406)" d="m0 0h10l4 1-1 4-4 3-5 2-8 1-5 3-4 1-5-2v-2l-4 1-4-2 9-1 4 1v2l5-2 1-2 11-3v-3h-4z" fill="#B0706C"/>
<path transform="translate(538,304)" d="m0 0 7 1 4 4 1 4-10 2-8 1-1-6 5-5z" fill="#8B5C5B"/>
<path transform="translate(522,542)" d="m0 0h1l-1 10-6 30-2 9-4 8-6 8-2-3 8-12 4-13 2-15 4-20z" fill="#5F4F53"/>
<path transform="translate(550,319)" d="m0 0 4 2 1 3v13l-5 17h-4l-3-7-1-3v-14l4-8zm-1 3-3 3-3 7 2 15h2l1 4 2-2 2-5 1-14 1-4-2-4z" fill="#A56D6A"/>
<path transform="translate(212,317)" d="m0 0 2 1-3 6h8l6 3-1 4-2 1-14 1v14l-2-3v-8l3-9 1-7z" fill="#A06865"/>
<path transform="translate(294,285)" d="m0 0 4 1v5l-4 8-14-3 1-5z" fill="#B37F7B"/>
<path transform="translate(437,276)" d="m0 0h7l2 7 2 1v2l4 2 2 2v4l-14 2 4-3 2-1v-5l-8-3-6-1 3-3v-3z" fill="#A06765"/>
<path transform="translate(344,428)" d="m0 0h9l8 1 4 5-2 2-3 1-14-1-3-3z" fill="#BABBCD"/>
<path transform="translate(349,310)" d="m0 0 4 2 1 6-1 7-4 3-5 2-2-4 1-7z" fill="#855C5B"/>
<path transform="translate(233,365)" d="m0 0h1l1 14-1 3v31l-4-1-2-8-2-12h5v-10l2-7z" fill="#B37E7A"/>
<path transform="translate(361,446)" d="m0 0h7l2 6-4 4-8 1-5-2-1-4 5-4z" fill="#C58B86"/>
<path transform="translate(328,392)" d="m0 0 1 2-1 3-7 3-16 2h-5v-2h-2l-1 2 1-5 2-2 17 1 8-2z" fill="#A16D6B"/>
<path transform="translate(398,392)" d="m0 0 6 1 4-1-1 3 11 6 8-1 7 4-4 1-14-1v2l-5-1-4-5-7-4z" fill="#4E4247"/>
<path transform="translate(343,611)" d="m0 0 5 2 3 2 10-1 13 1 8 4h9l10-4 7-4 2 1-13 8-7 2h-7l-5-2-7-3-7 1h-13l-7-4z" fill="#604F54"/>
<path transform="translate(327,401)" d="m0 0 4 1v2h-3v2l-10 5-1 1-1 8h-1l-1-9-1-2-8 2-3 6 3 3-1 2-4-3v-6l4-5 6-2 9-2z" fill="#6B585C"/>
<path transform="translate(343,394)" d="m0 0h7l2 2 7 1 1 1v5l-12-1h-9l-4-2h3l2-4z" fill="#6A4745"/>
<path transform="translate(386,291)" d="m0 0 3 1 3 7-1 7-4 1-4-2-4 2-1 10-2-3 2-11 4-5 3-1z" fill="#A16E6B"/>
<path transform="translate(237,390)" d="m0 0 3 2 1 12 2 4 1 9v10l-2-1v-6l-6 1 1-7z" fill="#514246"/>
<path transform="translate(310,305)" d="m0 0h7l2 3-5 2-4 8-2 1h-9l-3-5 1-3 1 3 7-1 2-7z" fill="#584345"/>
<path transform="translate(245,243)" d="m0 0 1 4-1 5v10l3 6v10l-6 20-1 1h-5l4-2 3-12 1-12-2-9 1-13z" fill="#4E3533"/>
<path transform="translate(343,333)" d="m0 0 2 1-3 9-6 9-3 2h-4l2-7 7-10z" fill="#995D5C"/>
<path transform="translate(384,367)" d="m0 0 1 3-5 5-12 7-10-3-6-3v-2h8v2h8l10-5z" fill="#B37E7A"/>
<path transform="translate(324,540)" d="m0 0 6 2 10 4 14 4 16 1 7 2v2l-25-2-19-6-7-3z" fill="#4E3737"/>
<path transform="translate(318,483)" d="m0 0h12l8 7 1 5-1 2-7 2 1-5-1-2-5-3-2-3-6-2z" fill="#A06765"/>
<path transform="translate(370,167)" d="m0 0 9 1 5 1v1l-12 1-4 2-7 1-2 2h-8l-9-1 5-4 5 1 1 2 4-1 2-4 5-1 6 1z" fill="#A2706D"/>
<path transform="translate(483,522)" d="m0 0 3 1-8 7h-2v2l-5 2h-3l-1 3-14 7-3 2h-4v-2l16-9 7-5 7-3z" fill="#815B5B"/>
<path transform="translate(433,404)" d="m0 0 7 5 1 7-4 4-13 5-4 3-2-1 2-3 4-2h3l2-4 5-2v-9z" fill="#554346"/>
<path transform="translate(457,307)" d="m0 0 15 3-3 9h-6l-5-5-3-6z" fill="#221D20"/>
<path transform="translate(421,264)" d="m0 0h3v2l-9 4-6 4-4 2-1 2h5v1h-7v6h-2l-1-4-11-4v-1l15-2 8-6z" fill="#865D5C"/>
<path transform="translate(441,423)" d="m0 0v3l-3 2-3 11-4 1-3-5-1-7-4-1 5-1 3 1z" fill="#A06765"/>
<path transform="translate(290,276)" d="m0 0h5v3l-15 6-10 2-1-4 3-3 13-2z" fill="#674645"/>
<path transform="translate(350,651)" d="m0 0h5l-3 2-12 7-14 4-13 9h-11l4-3h8l2-4 14-6 13-4 5-4z" fill="#5F4F53"/>
<path transform="translate(420,429)" d="m0 0 2 1-3 4v7l-2 6-1 6-8 7h-2l-1 4h-2l-1 3h-2l2-5 8-9 3-5 4-17z" fill="#A06765"/>
<path transform="translate(217,312)" d="m0 0 9 1 5 4-1 3-4-4-2-1h-7l-5 3-2 4v7l-3 7v11h2l1 9-3-4-2-7v-13l3-12 5-6z" fill="#8F5C5B"/>
<path transform="translate(253,459)" d="m0 0h9l3 6 2 7 3 6h-2l-3-4-5-2-5-8-2-2z" fill="#4E4247"/>
<path transform="translate(422,385)" d="m0 0 2 3v3l8 2v2l4 2 8 5 3 5-2 9h-1l-1-9-5-5-6-5-11-3-1-1v-6z" fill="#A06765"/>
<path transform="translate(319,415)" d="m0 0 3 2h14l8 1 3 4-10 3-4-1v-2l-9-2-6-1z" fill="#995D5C"/>
<path transform="translate(437,405)" d="m0 0 5 5 1 11-2 3-11 4-7-2 1-2 13-5 3-1v-7l-3-4z" fill="#835B5B"/>
<path transform="translate(419,387)" d="m0 0h1l1 6 11 3 11 9 1 2v9l-2 2-2-10-10-8v-2l-10-3-2-1z" fill="#8B5C5B"/>
<path transform="translate(384,334)" d="m0 0 2 3 6 17 3 8v10l-5 4-6 1 1-2 5-2 2-3-1-9-3-10-4-11z" fill="#995D5C"/>
<path transform="translate(346,289)" d="m0 0 16 1-1 2-7 2-3 4-1 6-4-5-2-3 1-6z" fill="#805B5B"/>
<path transform="translate(351,464)" d="m0 0h17v1l-14 1-4 1v2h16l3 2-5 1h-17l-4-2 1-4z" fill="#4E3C3E"/>
<path transform="translate(302,290)" d="m0 0h5l3 3-1 7-2 1h-6l-2-3v-5z" fill="#B6B7C8"/>
<path transform="translate(512,482)" d="m0 0 4 1 3 5 1 9-5-4h-3v2h-5l2-3 2-9z" fill="#4E3533"/>
<path transform="translate(314,300)" d="m0 0h16l8 2 4 8-1 3-5 1-1 4h-3l1-4v-2l3-3-2-4-5-3-15-1z" fill="#A06765"/>
<path transform="translate(549,322)" d="m0 0 4 1 1 5-2 1-1-3-3 1-1 13v6h2l2-7h1l-1 7-2 5-2-1v-3h-2l-2-15 4-8z" fill="#B47E7A"/>
<path transform="translate(328,322)" d="m0 0 5 1 1 3 3 1 1 7-2 2-3-5-10 2 3-3v-6z" fill="#B37F7B"/>
<path transform="translate(356,292)" d="m0 0h24v2h-22l-3 2 1 9 1 12-1 5h-1l-1-13-3-6v-6z" fill="#A06E6B"/>
<path transform="translate(299,632)" d="m0 0h10l2 3-1 3-3 2h-7l-3-2 1-5z" fill="#4E4247"/>
<path transform="translate(362,586)" d="m0 0 17 3-1 5-1 1h-8l-5-3v-2l-2-1z" fill="#BF7D77"/>
<path transform="translate(287,516)" d="m0 0 4 1 16 12 8 5 9 5 2 4-5-2-13-8-12-9-9-6z" fill="#4E3C3D"/>
<path transform="translate(549,316)" d="m0 0 5 2 2 4v15h-1l-1-13-2-4-5 2-4 8-1 14h-1l-1-16 4-7z" fill="#8B5C5B"/>
<path transform="translate(341,281)" d="m0 0h5l5 5 12 2v1h-24l-3-2h4z" fill="#96868F"/>
<path transform="translate(495,404)" d="m0 0 3 4h-2v4l-5 5-3 4v6h3v6l-2-1v-2h-2l-3-8 3-6 4-5z" fill="#4E4247"/>
<path transform="translate(210,356)" d="m0 0 1 2h2l5 10 3 5 3 9v5l-3-1-7-20v-2h-2l-2-5z" fill="#AA6E6A"/>
<path transform="translate(324,969)" d="m0 0h6l2 2v6l-2 2-7-1-1-6z" fill="#5D4E52"/>
<path transform="translate(382,647)" d="m0 0h11l14 7 2 3-5-2-9-4-4-1h-8l-7 1h-21v-1l19-1z" fill="#6B585C"/>
<path transform="translate(415,294)" d="m0 0 5 1 1 1v8h-7l-2-1-1-5z" fill="#B8B9CA"/>
<path transform="translate(0,467)" d="m0 0 3 1 3 7-2 9-4 2z" fill="#4F3634"/>
<path transform="translate(239,379)" d="m0 0h1v7h-3l1 32-2 2-4-1 3-2v-32z" fill="#785A5B"/>
<path transform="translate(247,421)" d="m0 0 7 2 1 16 3 7 6 4v2l-8-4-3-8-1-1v-12l-4-1z" fill="#6B585C"/>
<path transform="translate(349,377)" d="m0 0 9 1 10 3 7-4h4l-1 3-8 4-9-1-5-3-9-1z" fill="#A36F6C"/>
<path transform="translate(417,389)" d="m0 0h1v5l9 2 3 3h-12l-6-3v-4z" fill="#7F5B5B"/>
<path transform="translate(317,310)" d="m0 0 6 3-1 5-4 3-4-1-1-1v-5z" fill="#9F7879"/>
<path transform="translate(452,601)" d="m0 0 7 1v4l-12 2-7-2 3-2z" fill="#6B585C"/>
<path transform="translate(326,471)" d="m0 0 5 1v2l6 2-2 4h-7l-4-4z" fill="#B3736E"/>
<path transform="translate(312,435)" d="m0 0 5 2 5 9-1 14-3-3-1-5 1-8-2-5h-6z" fill="#B4716C"/>
<path transform="translate(447,425)" d="m0 0 3 2v7l-4 8h-4l1-9 3-4h2z" fill="#C58B86"/>
<path transform="translate(431,408)" d="m0 0 4 2-1 4h-2v2l-4 2-5-1 2-7z" fill="#221D20"/>
<path transform="translate(358,293)" d="m0 0h11v1l-9 2-2 5 1 8 1 12-2-3-2-10-2-6v-6z" fill="#B37E7A"/>
<path transform="translate(288,454)" d="m0 0h5l2 2 7 1 4 7-11-1-2-2v-4h-2v-2z" fill="#A06765"/>
<path transform="translate(319,386)" d="m0 0 4 1 1 3-4 1v2l-2 1h-6l-2-1 2-5z" fill="#BF7D77"/>
<path transform="translate(370,275)" d="m0 0 14 1v2h11v1h-27l-9 1v-2z" fill="#958A95"/>
<path transform="translate(342,389)" d="m0 0h10l-3 2 3 3 8 2 2 2v5l-2 1-1-6-7-1-2-2h-7-3l2-2z" fill="#6B585C"/>
<path transform="translate(215,325)" d="m0 0h7l3 2-1 4h-12l-1-4z" fill="#9A5E5D"/>
<path transform="translate(234,300)" d="m0 0h6l1 7-2 2h-5l-2-2v-6z" fill="#BD999C"/>
<path transform="translate(437,276)" d="m0 0h7l2 7 2 2-7-1-6-2v-5z" fill="#905C5B"/>
<path transform="translate(392,391)" d="m0 0h6v1l-7 2-1 2-8 2h-5l-2-5 14-1z" fill="#504246"/>
<path transform="translate(412,563)" d="m0 0 4 2-8 3-2 1-16 1 3-1v-2l12-3z" fill="#A46E6A"/>
<path transform="translate(337,457)" d="m0 0 10 2h26l-3 2h-42l1-3z" fill="#A06765"/>
<path transform="translate(372,428)" d="m0 0 6 1 2 1-1 5-7 1-3-2 1-5z" fill="#BABBCD"/>
<path transform="translate(334,407)" d="m0 0 4 1-5 3-1 3 2 1-10 1-1-4 4-4z" fill="#A16E6B"/>
<path transform="translate(409,549)" d="m0 0m-7 1h7v2l-9 2h-23l1-2 19-1z" fill="#4E3533"/>
<path transform="translate(417,420)" d="m0 0 5 1-3 5-5 2h-5l1-5z" fill="#221D20"/>
<path transform="translate(409,419)" d="m0 0h9l-1 2-7 3-1 4 10-2-1 2-6 2-5-1-2-5v-3z" fill="#4E3533"/>
<path transform="translate(410,484)" d="m0 0h3v3h-3v2h-2v10l-5 3-5 2 1-3h2v-2l4-4 1-7z" fill="#6A4745"/>
<path transform="translate(440,304)" d="m0 0 7 1v3h-2l-1 4-3 2h-7l-1-2 6-1z" fill="#221D20"/>
<path transform="translate(438,293)" d="m0 0h4v2h-2l-1 3-7 1-8-2-2-2z" fill="#A16E6B"/>
<path transform="translate(440,741)" d="m0 0 1 2-10 18-7 11-4 5 1-5 12-20z" fill="#5E4E52"/>
<path transform="translate(337,402)" d="m0 0h11l4 2-16 3-6 1 3-5z" fill="#8D5C5B"/>
<path transform="translate(240,329)" d="m0 0h1l-1 19-1 10h-2l-2-21 2 3v3h2v-13z" fill="#6A4745"/>
<path transform="translate(407,654)" d="m0 0 4 2 10 6 13 9-4 1-11-8-10-6z" fill="#5F4F53"/>
<path transform="translate(393,426)" d="m0 0h8l2 2-1 4-15-1-1-2z" fill="#A77471"/>
<path transform="translate(218,317)" d="m0 0 6 1v2h4l1 6-5-2-10-2 2-1v-3z" fill="#C07D77"/>
<path transform="translate(539,301)" d="m0 0 7 1 8 7 4 9 1 4v12h-1l-2-15-4-8-4-5-3-2-8-1z" fill="#4E3533"/>
<path transform="translate(469,594)" d="m0 0h5l4 7 5 3 1 3h-2l1 2v8l-2-1-1-11-5-2-2-8z" fill="#5C4C50"/>
<path transform="translate(550,319)" d="m0 0 4 2 1 3v13h-1l-1-11-1-3-4 1-4 8v4h-2l1-9 4-6z" fill="#A06866"/>
<path transform="translate(508,298)" d="m0 0 6 1v6l-2 1h-6l-1-5z" fill="#8D6361"/>
<path transform="translate(273,294)" d="m0 0 2 3v2l7 1h7l5 2-2 3-1-2-14 1-4-2z" fill="#A06765"/>
<path transform="translate(494,510)" d="m0 0 1 2-8 10-7 3-7 5-2-1 6-4 1-2h3v-2l8-6z" fill="#71595C"/>
<path transform="translate(335,426)" d="m0 0h7l-4 3-4 2 8 6 2 2-7-1-7-6 2-5z" fill="#B37E7A"/>
<path transform="translate(208,318)" d="m0 0 1 2-3 12v16l-3-3v-18h2l1-6z" fill="#61413F"/>
<path transform="translate(267,527)" d="m0 0h1v20l-1 9-2 7h-1l1-18z" fill="#5C4C50"/>
<path transform="translate(241,312)" d="m0 0 1 4-2 13-1 14h-2l-2-6v-7l2 1z" fill="#4E3636"/>
<path transform="translate(450,286)" d="m0 0 6 2 3 3-1 4-5 2-10-1v-1l11-1-2-5z" fill="#995D5C"/>
<path transform="translate(354,465)" d="m0 0h9v4l-1 1h-10l-2-1v-2z" fill="#221D20"/>
<path transform="translate(451,352)" d="m0 0m-2 1h2v2l-8 2 3 2-2 1h-9l-2-1v-2l4-2z" fill="#A4706C"/>
<path transform="translate(247,240)" d="m0 0h1v13l-1 8 1 1v6l-3-4-1-2v-10z" fill="#4E4247"/>
<path transform="translate(347,380)" d="m0 0h10l2 1v2h-12l-13 1 1 4-4-2 1-4 12-1z" fill="#8B5C5B"/>
<path transform="translate(521,500)" d="m0 0 4 5 2 6v14l-2 11h-1l1-23-5-11z" fill="#4E4146"/>
<path transform="translate(538,395)" d="m0 0 2 1-1 10-4 3-1-6 2-7z" fill="#6A4745"/>
<path transform="translate(390,440)" d="m0 0h3l1 5-7 9-7 4-7 1 4-2 4-1v-2l9-7 1-3z" fill="#A06765"/>
<path transform="translate(434,412)" d="m0 0 1 4-7 4-1 2-6 2v-3l-2-2 4-3 5 1 4-1v-2h2z" fill="#4E3533"/>
<path transform="translate(394,326)" d="m0 0 2 2v6l7 13-1 2-7-10-3-6 1-6z" fill="#825B5B"/>
<path transform="translate(312,314)" d="m0 0 1 3-2 4-14 1-2-2 1-4 3 2h12z" fill="#7F5B5B"/>
<path transform="translate(538,306)" d="m0 0 6 1-1 4-9 3v-5z" fill="#A06765"/>
<path transform="translate(249,302)" d="m0 0 5 1 1 1v11h-4l-1-1v-6l3-4z" fill="#6B585C"/>
<path transform="translate(408,317)" d="m0 0h6l2 3-1 5-6-2-2-5z" fill="#B37F7B"/>
<path transform="translate(217,314)" d="m0 0h7l5 5 1 5-2-4h-4v-2h-8l-2-2z" fill="#AD6E6A"/>
<path transform="translate(483,617)" d="m0 0 4 5 3 3v10l6-1v2l-5 2-3-2-1-9-4-5z" fill="#4E4247"/>
<path transform="translate(320,303)" d="m0 0 3 3v4l-6-1v2h-2l-1 3h-2l-2 4 1-5 4-5 3-1-1-3z" fill="#6E585C"/>
<path transform="translate(477,296)" d="m0 0h6l1 5h-2v2l-5 1-1-7z" fill="#8A6261"/>
<path transform="translate(483,522)" d="m0 0 3 1-8 7h-2v2l-5 2-3-1 5-4z" fill="#8D6160"/>
<path transform="translate(207,323)" d="m0 0h1l-1 21v3h2l1 9-3-4-2-7v-13z" fill="#8A5E5D"/>
<path transform="translate(352,312)" d="m0 0 2 2v7l-2 5-8 4-2-4 2-4v4l6-1z" fill="#995D5C"/>
<path transform="translate(272,296)" d="m0 0 2 4-1 2 5 1 10-1-3 3-6 2-5-1-2-3z" fill="#995D5C"/>
<path transform="translate(477,519)" d="m0 0v3l-5 5-9 5h-2v2l-5 2v-2l4-1 1-4 10-4 1-2h2v-2z" fill="#4E4247"/>
<path transform="translate(214,310)" d="m0 0h11l2 2h-11l-9 9-2 6-1-4 4-8z" fill="#523836"/>
<path transform="translate(270,445)" d="m0 0 6 1 9 4 1 2-8 1-5-5v-2z" fill="#995D5C"/>
<path transform="translate(352,289)" d="m0 0h23l-1 3h-13v-1l-9-1z" fill="#786267"/>
<path transform="translate(308,413)" d="m0 0 5 1v6l-3 3-2-1-1-8z" fill="#4E4247"/>
<path transform="translate(344,383)" d="m0 0 1 2-1 2h8v2h-12v-2l-3-1v-2z" fill="#6A4745"/>
<path transform="translate(330,303)" d="m0 0 5 2 2 4-2 3h-2l1 5-2 2-5 1-1-2 5-1 1-10z" fill="#995D5C"/>
<path transform="translate(287,516)" d="m0 0 4 1 15 11-3 1-13-9-3-2z" fill="#4E3A3C"/>
<path transform="translate(344,423)" d="m0 0h8l4 1 15 1-4 2-25-1z" fill="#A4726F"/>
<path transform="translate(281,313)" d="m0 0h4l-1 7h-7l1-5z" fill="#4E3636"/>
<path transform="translate(364,401)" d="m0 0 1 4-1 1-17 1h-11v-1l10-2h17z" fill="#A06966"/>
<path transform="translate(271,330)" d="m0 0h2l1 6h6v2l-10 1v-8z" fill="#A06967"/>
<path transform="translate(407,577)" d="m0 0h3v3l-8 5-6 1 5-6z" fill="#A4726E"/>
<path transform="translate(281,528)" d="m0 0 7 1 10 10-5-2-5-3v-2l-4-1z" fill="#995D5C"/>
<path transform="translate(231,319)" d="m0 0 1 2h2l1 15 1 6h-2l-3-11z" fill="#7B5858"/>
<path transform="translate(308,308)" d="m0 0 3 1-2 6-2 2h-8l-3-3 1-3 1 3h8z" fill="#221D20"/>
<path transform="translate(424,287)" d="m0 0 8 1-1 4-2 1h-6l-2-4z" fill="#C58B86"/>
<path transform="translate(345,425)" d="m0 0 10 1 3 2-5 1h-14l3-3z" fill="#968A94"/>
<path transform="translate(397,280)" d="m0 0 3 1 1 5-1 3h-22v-1l15-1 4-2z" fill="#8E7277"/>
<path transform="translate(415,279)" d="m0 0h4v2h13l1 3h-11l-7-4z" fill="#A16F6C"/>
<path transform="translate(300,673)" d="m0 0h11v1l-10 2-8 5h-10v-1l9-1z" fill="#645357"/>
<path transform="translate(435,418)" d="m0 0 3 1-8 4-9 4h-3l2-3 11-5z" fill="#684644"/>
<path transform="translate(334,281)" d="m0 0h6l2 3-2 3h-6l-1-5z" fill="#BABBCD"/>
<path transform="translate(326,970)" d="m0 0 5 2-1 5h-5l-1-1v-5z" fill="#958A95"/>
<path transform="translate(316,666)" d="m0 0 3 1-4 5-2 1h-11l4-3h8z" fill="#52454A"/>
<path transform="translate(502,607)" d="m0 0 2 4 1 1-1 9-3 4 2-10-3-1 1-6z" fill="#4E4247"/>
<path transform="translate(522,542)" d="m0 0h1l-1 10-1 5h-2l-1 4 1-11 2-7z" fill="#604F54"/>
<path transform="translate(290,427)" d="m0 0 4 1-1 7-3 1-2-3v-5z" fill="#C07D77"/>
<path transform="translate(437,405)" d="m0 0 5 5v9l-5 3-7 1 3-2 5-3h2v-7l-3-4z" fill="#6B585C"/>
<path transform="translate(445,545)" d="m0 0 2 2-16 8v-3z" fill="#8A5C5B"/>
<path transform="translate(372,394)" d="m0 0 4 1 2 5-1 3h5l-4 2-4-1-1-8z" fill="#6B585C"/>
<path transform="translate(432,360)" d="m0 0h8l6 1-4 2h-15l3-2z" fill="#B37F7B"/>
<path transform="translate(476,295)" d="m0 0h8l2 2 5 2 1 2-8 3 1-5-2-2h-7z" fill="#634545"/>
<path transform="translate(327,401)" d="m0 0 4 1v2h-3v2l-6 1-2-3z" fill="#6A4745"/>
<path transform="translate(282,354)" d="m0 0 12 2v3h-13l4-1v-2l-3-1z" fill="#B4716C"/>
<path transform="translate(549,322)" d="m0 0 4 1 1 5-2 1-1-3-3 1-4 8-1-3 4-8z" fill="#B4716C"/>
<path transform="translate(496,622)" d="m0 0h2l-1 6-4 4-1-1 1-7z" fill="#958A95"/>
<path transform="translate(514,492)" d="m0 0 4 2 3 3v4l-4-2-4-3-3-1h2v-2z" fill="#5A4345"/>
<path transform="translate(359,415)" d="m0 0 6 1v2h4v2l-4 1-5-2v-2l-4 1-4-2z" fill="#A3706C"/>
<path transform="translate(375,377)" d="m0 0h4l-1 3-8 4h-5l5-4z" fill="#A36C69"/>
<path transform="translate(290,315)" d="m0 0 5 1 1 5-5 1-2-2z" fill="#A16D6A"/>
<path transform="translate(422,268)" d="m0 0 2 1-5 4 3 2-2 1h-7l2-5z" fill="#6A4745"/>
<path transform="translate(463,683)" d="m0 0 5 1 1 5-2 3-1-5h-10l-2-3 7 1z" fill="#4E4247"/>
<path transform="translate(511,593)" d="m0 0 1 3-8 11-2-3 7-9h2z" fill="#5C4D51"/>
<path transform="translate(347,570)" d="m0 0 7 1-1 4-4 1-3-2z" fill="#B37F7B"/>
<path transform="translate(369,465)" d="m0 0h8l2 4h-9v-2l-2-1z" fill="#221D20"/>
<path transform="translate(382,463)" d="m0 0h9l-1 5-6 1-1-4z" fill="#4E4247"/>
<path transform="translate(403,429)" d="m0 0 2 3-1 4h-5l-1-3-5-1v-1h9z" fill="#A06765"/>
<path transform="translate(475,203)" d="m0 0 9 3v9l-2-3-4-5-3-3z" fill="#4E4247"/>
<path transform="translate(331,398)" d="m0 0 5 1 3 3-8 2v-2l-4-2z" fill="#6A575A"/>
<path transform="translate(538,304)" d="m0 0h5l1 3h-6l-3 2-1 5 2 1h-3l-1-7z" fill="#8F5C5B"/>
<path transform="translate(433,303)" d="m0 0 5 1v5l-4 1-2-2z" fill="#958A95"/>
<path transform="translate(249,295)" d="m0 0 5 1v5h-6l-1-3z" fill="#A16B69"/>
<path transform="translate(324,505)" d="m0 0 6 3 10 2 2 3-14-3-4-3z" fill="#6A4745"/>
<path transform="translate(465,356)" d="m0 0 6 3-3 1h-10l-7-1v-1l11-1z" fill="#A2706D"/>
<path transform="translate(467,344)" d="m0 0 5 1-2 4-5 1v-4z" fill="#B37F7B"/>
<path transform="translate(401,317)" d="m0 0 1 4-5 9v6l-2-2v-8l4-4z" fill="#995D5C"/>
<path transform="translate(375,289)" d="m0 0h12l1 2-14 1z" fill="#6C5254"/>
<path transform="translate(432,394)" d="m0 0 6 1 6 4 1 4-10-6z" fill="#A2706D"/>
<path transform="translate(376,384)" d="m0 0m-2 1 2 1-3 4 9 2v1h-8l-5-2 1-4z" fill="#4E3736"/>
<path transform="translate(424,297)" d="m0 0 15 1v2l-13 1z" fill="#855C5B"/>
<path transform="translate(388,276)" d="m0 0h9l4 4v5l-2-4-11-4z" fill="#73595B"/>
<path transform="translate(425,474)" d="m0 0v3l-5 5-7 2 4-4z" fill="#6A4745"/>
<path transform="translate(441,349)" d="m0 0 7 4v1l-11 1z" fill="#B37F7B"/>
<path transform="translate(531,308)" d="m0 0 1 2v6h5v2l-5 1-3-4 1-6z" fill="#6A4745"/>
<path transform="translate(462,686)" d="m0 0 5 1v7l-2 1v-6l-9-1v-1z" fill="#69565A"/>
<path transform="translate(360,597)" d="m0 0 9 1 4 3-5 1-8-4z" fill="#C38A86"/>
<path transform="translate(350,383)" d="m0 0 4 1v2l-2 1h-8l1-3z" fill="#4E3533"/>
<path transform="translate(543,325)" d="m0 0 1 2-1 3-1 14h-1l-1-16h2z" fill="#955C5B"/>
<path transform="translate(332,322)" d="m0 0 4 1 4 5-1 6h-1l-1-7-4-1z" fill="#B4716C"/>
<path transform="translate(481,304)" d="m0 0h3v2h-2v19h-1l-1-20z" fill="#524145"/>
<path transform="translate(347,889)" d="m0 0 1 2-6 13h-7v-1l6-2z" fill="#635156"/>
<path transform="translate(407,654)" d="m0 0 4 2 10 6-3 1-9-5z" fill="#5B4B50"/>
<path transform="translate(422,356)" d="m0 0 10 1v2h-7v2l-4-1h2z" fill="#A16F6C"/>
<path transform="translate(437,276)" d="m0 0h7l1 3-10 1v-3z" fill="#A06765"/>
<path transform="translate(488,223)" d="m0 0 3 1v6l-4 4z" fill="#4E4247"/>
<path transform="translate(271,630)" d="m0 0h1v5l-5 1-3-2v-3l6 1z" fill="#675559"/>
<path transform="translate(546,322)" d="m0 0 3 1-3 5-2 4v4h-2l1-9z" fill="#A06B68"/>
<path transform="translate(234,300)" d="m0 0h6l-1 2h-4v6l4 1h-5l-2-2v-6z" fill="#9F7E81"/>
<path transform="translate(332,280)" d="m0 0h2v8h-5l-1-2h2l1-5z" fill="#A28A90"/>
<path transform="translate(210,356)" d="m0 0 1 2h2l5 11-3-1-1-4h-2l-2-5z" fill="#976765"/>
<path transform="translate(391,317)" d="m0 0 5 1v5h-4l-2-5z" fill="#6A4745"/>
<path transform="translate(484,305)" d="m0 0 4 2-3 6h-2l-1-7z" fill="#221D20"/>
<path transform="translate(401,294)" d="m0 0h1v7l2 1-1 1h-5l1-5z" fill="#A06765"/>
<path transform="translate(350,289)" d="m0 0 12 1v1l-10 2-5-1z" fill="#6A4745"/>
<path transform="translate(377,618)" d="m0 0 14 2-1 2h-7l-5-2z" fill="#5B4C50"/>
<path transform="translate(374,426)" d="m0 0 7 1 2 2-1 5-1-4-5-1v-2z" fill="#9C8A92"/>
<path transform="translate(228,387)" d="m0 0 4 2-1 5-5-2z" fill="#C1817B"/>
<path transform="translate(332,382)" d="m0 0h12v1l-10 1 1 4-4-2z" fill="#995D5C"/>
</svg>
